<?xml version="1.0" encoding="UTF-8" standalone="no"?>
<!-- Generator: Adobe Illustrator 24.0.1, SVG Export Plug-In . SVG Version: 6.00 Build 0)  -->

<svg
   version="1.1"
   id="Layer_1"
   x="0px"
   y="0px"
   viewBox="0 0 762.69999 709"
   xml:space="preserve"
   sodipodi:docname="empty-thread2.svg"
   width="762.70001"
   height="709"
   inkscape:version="1.1 (c4e8f9e, 2021-05-24)"
   xmlns:inkscape="http://www.inkscape.org/namespaces/inkscape"
   xmlns:sodipodi="http://sodipodi.sourceforge.net/DTD/sodipodi-0.dtd"
   xmlns="http://www.w3.org/2000/svg"
   xmlns:svg="http://www.w3.org/2000/svg"><defs
   id="defs861" /><sodipodi:namedview
   id="namedview859"
   pagecolor="#ffffff"
   bordercolor="#111111"
   borderopacity="1"
   inkscape:pageshadow="0"
   inkscape:pageopacity="0"
   inkscape:pagecheckerboard="1"
   showgrid="false"
   inkscape:zoom="0.40907182"
   inkscape:cx="394.7962"
   inkscape:cy="328.79312"
   inkscape:window-width="1312"
   inkscape:window-height="1003"
   inkscape:window-x="0"
   inkscape:window-y="23"
   inkscape:window-maximized="0"
   inkscape:current-layer="Layer_1" />
<style
   type="text/css"
   id="style824">
	.st0{fill-rule:evenodd;clip-rule:evenodd;}
	.st1{fill-rule:evenodd;clip-rule:evenodd;fill:#131313;}
	.st2{fill-rule:evenodd;clip-rule:evenodd;fill:#5C5C5C;}
</style>
<g
   id="Layer_x0020_1"
   transform="translate(-25.7,-265.5)">
	<g
   id="_413905392">
		<path
   class="st0"
   d="m 553.4,687.9 c 0,4.7 0.9,10.7 2.6,13.7 h 4 c 1.6,-6.3 -0.7,-6.3 -0.7,-13.7 0,-8.2 5.7,-17.7 10.3,-21.7 6.2,-5.5 15.8,-8.9 26.3,-8.9 11.7,0 23.3,17.3 29,25.8 3.5,5 2.2,3.9 -2.5,11.7 -11,18.4 -39,44.1 -60.4,50 -2.9,0.8 -5.6,-2.5 -10.8,-6.4 -9.3,-6.9 -11.8,-9.3 -19.8,-17.3 l -26.3,-29.9 21,-22 c 5.7,-5.6 18.4,-23.6 19.5,-24.3 3.6,2.5 12.5,14.4 18.3,18.3 -4.5,6.6 -10.5,13.7 -10.5,24.7 z M 422.3,648.2 c 2,-1.2 5.2,-3 7.7,-3.3 6.4,27.3 6.1,43.8 -0.5,71.3 -2.6,10.8 -6.8,21.7 -11.3,30.5 -6.7,13.6 -18.4,32.3 -31.6,41.5 -5.9,4 -9.6,3.4 -15.4,0.4 6.4,-9.7 3.6,-5.2 6.9,-6.3 1.1,-0.4 2,-1.5 2.8,-2.3 11.7,-12.2 17.2,-15.7 25.8,-32.9 17.7,-35.4 20.5,-60.3 15.6,-98.9 z m 15.6,-2.7 c -0.5,1.9 0.1,1.1 -1.3,2 0.5,-1.9 -0.1,-0.9 1.3,-2 z m 0,0 c 0.5,-1.9 -0.1,-0.9 1.3,-1.9 -0.4,1.9 0.1,1 -1.3,1.9 z m 64,40.6 c -2,-1.4 -9.5,-12.1 -11.4,-14.8 -1.6,-2.5 -1.9,-3.5 -4.9,-4.2 -4.1,2.8 -2,4.5 0.2,7.6 0.8,1.1 1.1,1.5 1.9,2.7 l 19.7,26 c 1.5,2 2.9,2.8 4.2,4.8 -1.2,14.2 -4,23.3 -10,33.1 -14.9,24.5 -57.7,42.7 -88.5,42.7 -4.3,0 -6.8,-0.7 -11.8,-0.7 1.1,-1.5 2.5,-3 3.8,-4.7 1.5,-2 2.5,-3.3 4,-5.3 2.7,-3.5 4.5,-6.8 6.9,-10.7 l 6.6,-11.1 c 4.3,-8.7 7.4,-15.5 10.2,-24.8 5.7,-18.4 10.3,-45.5 6.6,-65.5 -1.3,-7 1.3,-7.4 3.9,-12.3 9.5,6.4 18.5,-1.1 32,-7.9 l 35.9,-18.3 c 7.9,-3.9 4.7,-5.4 16.2,4.8 4,3.5 11,9.3 13.8,13.5 l -33.4,39.7 c -2.2,1.8 -3.7,3.8 -5.9,5.4 z M 257.7,624 c 0.1,3.4 2.3,10.2 3.3,13.1 6.1,19.2 4,14.9 12.5,33.1 0.6,1.2 0.8,1.5 1.6,2.9 7.9,14.5 16.1,28.4 25.8,41.5 11.4,15.2 14.8,22.4 29.4,37.2 8.2,8.2 10.9,8.9 18.5,14.7 3.3,2.5 6.7,4.7 10.2,6.9 3.8,2.3 7,3.9 10.9,6 l -4.1,6.3 c -2,2.5 -3.5,4.1 -6.9,4.1 -5.3,0 -19.1,-11 -23.2,-14.1 -17.3,-13 -28.5,-26.7 -42.5,-41.6 l -12.7,-16.2 c -5.5,-7.7 -13.1,-19.8 -17.6,-28.7 -1.1,-2.1 -2.2,-4.3 -3.3,-6.4 -4.1,-8.2 -15.5,-31.3 -17.6,-39.1 -2.1,-7.6 -1.2,-8 4.1,-12.3 2.3,-1.8 9.1,-6.8 11.6,-7.4 z m 191.3,8.5 -1.3,0.7 z m 121.4,18.9 c 0,3.3 1.4,4.6 3.8,3.3 2.8,-1.4 2.7,-8 7.6,-15.2 10.1,-14.7 28,-16.9 41.6,-8.3 3.6,2.2 8.9,7.1 11.7,10.4 1.6,1.9 1.6,2.6 3.8,4 -0.6,2.6 -0.9,5.5 -1.6,8.1 -1.4,4.7 -8.3,17.9 -11.4,20 -2,-1.5 -6.1,-8.9 -12.3,-13.8 -11.5,-9.3 -19.1,-10.7 -34,-5.7 -2.2,0.8 -3.3,1.3 -5.5,2.3 -1.9,0.9 -4,2.3 -5.6,2.8 l -19.1,-18.8 c 5.4,-3.6 17.1,-18 18.4,-23.7 4,1.1 11.3,11.4 13.7,13.1 -2.3,3.4 -4.6,5.9 -6.4,9.7 -1.1,2 -4.7,9.4 -4.7,11.8 z m -25.5,-15 c -2.3,-3.5 -16.8,-16.1 -21.4,-20.2 2.1,-0.6 0.4,-0.1 1.9,-0.8 0,0 1.4,-0.6 1.8,-0.8 l 27,-14.1 10.5,11.1 c -6,8.7 -10.4,18.5 -19.8,24.8 z m -95.9,-3.9 25.2,-19.8 c 2.2,-1.9 2.6,-2.7 6.4,-2.1 4.2,0.6 4.8,0.4 8.3,-0.1 3.2,-0.5 5,-1.3 7.6,-1.4 -0.7,0.6 0.2,-0.1 -1.1,0.8 l -4.3,2.1 c -2.3,1.2 -3.8,2 -6.1,3 z m 48.3,-24.2 0.2,0.2 c 0,0 -0.3,-0.2 -0.2,-0.2 z M 351.1,588.1 c 2.3,1.6 5.6,3.6 7.1,5.9 -3.6,0 -3.9,0.7 -7.1,0.7 -0.9,-4.1 0,-2.3 0,-6.6 z m -5.8,6.5 c -21.4,0 -34.2,-1.3 -46.5,10.9 -9.3,9.1 -7.3,23.1 -2.5,23.1 4.9,0 0.8,-8.4 2.8,-13.5 8.8,-21.8 46.2,-11.4 73.8,-16.3 14.3,-2.6 22.9,-8.6 26.5,-9.5 0.9,11.5 11.7,30 18.8,39.4 1.6,2.2 2.6,3.3 4.3,5.4 1.6,2.1 3.6,2.9 4.3,5.5 -8.3,2 -22.4,15 -54.3,15 -12.4,0 -40.9,-2.1 -51.3,-9.3 -3.4,-2.2 -1.5,-2.5 -6.7,-2.5 -0.6,2.6 -2.1,3.5 3.2,7.3 5.4,4 13.7,5.5 20.3,7.1 15.8,3.6 42.7,5 59.3,0.5 l 17.1,-5.7 c 1.5,0 0.7,0.2 2.6,0.7 0,2.2 0.5,5.5 0.8,8.3 1.8,16.9 0.4,35.2 -3.6,51.5 -1.3,4.9 -2.5,7.7 -4.1,12.2 -4.1,11.6 -9.6,23.7 -17,33.3 -2,2.8 -13.6,17.3 -16.5,17.3 -6.7,0 -33.9,-19.7 -41.3,-27.2 L 324.2,736.4 C 317.8,729 296,697.4 291,689.3 L 278.7,667 c -5.7,-11.4 -9.4,-20.6 -12.5,-33.2 -4,-15.4 -9.6,-22.4 3.8,-32.3 7.5,-5.7 22.6,-12.3 31.2,-14.5 31.2,-7.7 34.5,-0.5 44.2,-0.2 -0.1,3.3 -1.3,5.4 -0.1,7.8 z m 139,10.5 c -6.7,0 -14.7,-3 -19.8,-7 -1.2,-0.8 -8.3,-7.1 -8.3,-0.1 0,2.7 10.8,9 13.7,9.7 -0.5,2 -0.8,1.8 -3.9,4.1 l -34,24.6 c -2.6,-3.8 -5.9,-6.8 -8.8,-10.7 -2.7,-3.4 -5.9,-7.9 -8,-11.7 -3.5,-6.4 -10.7,-21.1 -10.7,-28.5 10.5,-2.8 49.8,-39.1 64.7,-39.1 5.5,0 11.3,2.1 15,3.9 8.6,4.2 31.9,15.2 31.9,25.6 0,15.8 -5.3,22.2 -19.9,27 -2.9,0.8 -8.4,2.2 -11.9,2.2 z M 347.2,581.6 c -5.4,-2.7 -17.7,-4 -25.4,-4 -7.3,0 -17.7,2.2 -23.4,4 -9.4,3 -28.8,10.8 -36.1,18.8 -0.9,1.1 -1.9,2.3 -2.8,3.6 -2,2.8 -3.2,6.1 -4.3,9.5 -1.1,3.3 -0.8,1.9 -0.5,5.3 -2.5,1.3 -4.1,2.6 -6.6,3.9 -0.8,-9 -2.8,-15.1 4.9,-26.4 12.5,-18 51.8,-29.1 72.8,-29.1 7.5,0 14.5,2 21.4,4 2.5,0.6 4.7,1.6 7.3,1.9 -2.4,3.4 -5.1,4.3 -7.3,8.5 z m 20.8,11.7 c -1.4,0 -2.2,-1.3 -3.5,-2.3 l -10.8,-8.1 c 2,-3 34.2,-34 35.3,-34 6.6,0 29.5,17.7 31.3,20.3 -4.8,1.1 -31.4,24.1 -52.3,24.1 z m -9,-24.8 c -4.1,0 -9.5,-3.8 -14.4,-3.9 l 14.7,-12.2 c 4.3,-3.4 5.9,-6.6 8.8,-7.4 3,2 5.3,4.8 7.3,7.9 -2,2.8 -5.2,5.4 -7.7,8 -1.1,0.9 -8.2,7.6 -8.7,7.6 z m 139,-18.3 c 4.3,-0.4 9,-1.3 12.4,-2.5 l 11.7,-4 c 0.1,2.2 0.8,3.4 1.5,5.6 1.8,5.4 12.1,38 12.2,40.7 -2.5,0.6 -3.6,1.5 -5.9,2.7 -3.8,2.1 -15.4,8.3 -18.4,9 1.2,-1.4 4.8,-3.9 7.3,-9.1 2.8,-6 3.3,-10 3.3,-16.9 0,-6.6 -5.6,-12.3 -9.4,-15.5 -2.3,-2 -4.7,-3.5 -7.3,-5.2 l -6.4,-4.1 c -1.2,-0.7 -0.3,0 -1,-0.7 z M 387.7,539.8 c 9,0 11,-0.6 17.6,-3.2 l 15,-6.6 c 2,8.3 4.8,15.2 8.7,22.6 1.2,2.2 3.2,4.5 3.8,6.7 -1.3,1.8 -5.9,4.6 -7.9,5.9 -1.3,-1.8 -6.3,-5.3 -8.6,-7 -5.4,-4 -12.9,-9.6 -18.6,-12.7 -1.9,-1.1 -4,-1.8 -5.6,-2.2 l -2.7,-1.3 c -0.7,-0.6 -1.3,-1.5 -1.7,-2.2 z m -15.7,0 c 1.4,-2 1.9,-2 3.3,-4.6 l 8.4,9.8 -3.8,4.1 c -2.1,-3.2 -6,-6.5 -7.9,-9.3 z m 53.5,-13 14.5,-9 c 4.9,-3.3 9.5,-6.6 14.2,-10 17.5,-13.1 26.1,-22 46.8,-12.8 7.9,3.6 7,4.3 9.1,11.1 1.8,5.4 3,10.5 4.8,15.5 6.1,18.3 7.6,16.1 -6.1,20.6 -4,1.3 -9.1,2.2 -13,1.8 -15.4,-2.1 -16.9,-10.9 -21.3,-8.8 -3.5,1.8 -0.8,1.9 -2,4.6 -7.3,1.8 -10,0.2 -19.5,6 l -15.7,9.7 c -0.6,-2.1 -2.3,-4.3 -3.5,-6.3 -3.1,-5.6 -7.5,-16.6 -8.3,-22.4 z m 24.8,118.7 c -3.3,0 -4.6,-1.8 -5.2,-4.6 2.9,-0.7 17.3,-8.4 21.4,-10.4 19.5,-8.8 45.4,-22 64.8,-31.8 L 552,587.4 c 5.4,-3.9 4.8,-13.7 6.9,-25.1 1.6,-9.1 2.9,-18.6 4.7,-27.3 1.8,-9.3 2.6,-19.1 4.7,-27.9 5.4,4 2.7,11.4 1.5,19.1 l -9.3,54 c -0.9,5.6 -1.1,8.7 -4.5,11.8 -3.4,3.3 -84.3,44.2 -96.9,50 -2,1.3 -5.6,3.5 -8.8,3.5 z M 183.4,492.8 c 0,-9.8 2.6,-19.8 10,-26.5 26.3,-23.8 59.2,-1.1 59.2,21.3 0,12.7 -1.1,18.9 -10.5,28.5 -21.6,21.7 -58.7,4.6 -58.7,-23.3 z m 331.5,-25.5 c 0,-3.3 3.5,-16.3 4.6,-19.7 L 535.9,391 c 2.1,2.5 3.3,9.5 4.1,12.8 l 19.7,82 c 0.7,2.6 1.1,4.7 1.6,6.9 2,8.4 1.5,11.7 0,20.4 -2.9,17.8 -8.1,45.1 -10.3,62.1 -0.4,3.4 0.6,2.8 -1.5,4.3 l -17.3,-55.8 c -3,-9.3 -6.1,-18.3 -8.9,-27.7 -1.6,-5.1 -8.4,-24.6 -8.4,-28.7 z M 336.1,342 c 21.3,14.3 40.3,33.1 50.3,57.3 0.9,2.3 2.2,5 3.2,7.4 0.5,1.2 0.9,2.6 1.3,3.9 0.7,1.6 0.9,2.3 1.5,4.5 8.3,33.5 8.3,62.1 -7.7,94.2 -0.9,1.9 -1.4,3.2 -2.3,4.9 -1.5,2.6 -1.4,1.9 -4.8,2.3 -8.3,1.4 -15.7,3.2 -23.9,4.2 l -26,2.1 c -4.1,-0.1 -9.6,-0.4 -13.6,0 -10.1,0.8 -29.8,0.5 -40.3,-0.9 -4.5,-0.7 -8.3,-1.2 -12.5,-1.8 l -12.4,-1.9 c 1.2,-2.3 2,-2.9 3.4,-5.2 9.7,-15.5 8.6,-36.9 -4.2,-49.6 -5.7,-5.6 -13.8,-11.8 -22.7,-12.5 1.1,-2 1.5,-2.3 2.6,-4 8.1,-12.5 19.5,-28.1 29.3,-39.3 1.4,-1.5 2.1,-2.1 3.4,-3.8 l 23.9,-23.7 c 14.9,-12.5 18.2,-14.8 34.8,-27.2 5.1,-3.8 10.5,-7.6 16.7,-10.9 z M 509,466.1 c 0,7.7 9.6,35.7 13,45.8 l 14.1,44 c 1.2,3.9 8.8,26.1 8.8,29.7 -1.6,0.4 -1.9,0.6 -3.2,1.3 l -9.6,-29.5 c -2.1,-6.6 -27.7,-87.2 -27.7,-90.5 0,-4.7 17.2,-60.5 19.7,-67.9 1.2,-3.4 1.4,-6.9 5.2,-7.9 -0.1,3.2 -1.8,6.6 -2.6,9.1 -2.4,7.7 -17.7,60.6 -17.7,65.9 z M 218.6,450.3 c -4.8,0 -9.1,0.5 -12.3,2 0.8,-3 9.5,-15.8 11.7,-18.9 7.4,-10.4 11.4,-15.9 19.8,-25.9 l 26,-27.5 c 4.1,-3.5 6.8,-6.8 12.3,-11.1 2.9,-2.2 5.4,-4.3 8.2,-6.8 11.4,-9.3 23.9,-17.2 36,-25.4 2.3,-1.5 2.1,-2 4.8,-0.6 4.7,2.3 3.9,1.3 4.5,3.4 -3.4,0.8 -12.9,8.6 -16.4,10.9 l -38.4,30.8 c -8.9,7.4 -26.3,27.5 -33.3,36.5 l -17.1,24 c -2.1,3.3 -3.9,5.4 -5.8,8.6 z m -41,38.6 c 0,14.9 3,19.8 10.7,29.8 1.5,2 2.9,2.8 4.8,4.3 13.2,11 34,11.1 48.2,1.4 3,-2.1 0.4,-1.6 7.5,-0.4 32.1,5.5 37.3,4.7 70.4,4.7 13.7,0 30.9,-1.2 44.1,-3.6 4.1,-0.7 10.1,-2.2 13.9,-2.2 -3,4.6 -5.9,8.9 -9.6,13.1 -8.3,9.5 -4.7,5.2 -11.4,11.5 -2.9,2.7 -17.6,14.7 -19.5,14.9 -1.6,0.2 -7.5,-1.1 -10.4,-1.1 -22.3,0 -50.9,9.6 -64.2,18.6 -3,2.2 -2.2,2.2 -6.7,1.4 -2.6,-0.5 -5.9,-0.9 -9,-1.5 -27.9,-5.2 -48.5,-14.8 -68.7,-35 -7.1,-7 -13.4,-14.1 -18.9,-22.9 C 148,504.3 139,480.6 139,458.2 c 0,-24 2.1,-40.8 12.7,-61.8 14.8,-29.3 33.4,-47.2 62.4,-61.5 23.7,-11.7 54.9,-14.9 82,-8.9 3.5,0.8 6.4,1.5 9.8,2.5 2.6,0.7 7.6,2.9 10,3.2 v 1.3 c -6.7,1.9 -39.5,28.7 -47.4,34.9 -4.8,3.8 -19.5,17.9 -23.3,22.4 -10.1,11.5 -20.2,23 -29,35.6 -1.4,2.1 -2.3,3.2 -3.8,5.4 -2.7,4.1 -4.8,7.3 -7.4,11.5 -2.6,3.9 -4.6,7.1 -6.9,11.4 -1.3,2.3 -2.6,2.9 -4.7,4.5 -2.1,1.6 -2.9,2.6 -4.7,4.5 -5.4,5.2 -11.1,15.2 -11.1,25.7 z m -44.5,-43.1 c 0,22.2 2.2,43.1 11.3,61.2 3.5,6.8 6.6,13.6 10.8,19.9 2.1,3.2 3.9,5.6 6.3,8.8 6.7,8.6 14.3,15.9 22.7,22.9 11.8,9.6 25,17 39.5,21.8 3.6,1.3 7.6,2.3 11.8,3.3 4,0.8 9,1.5 13.1,2.6 1.3,8.9 -0.2,4.3 -3.8,12 -1.1,2.3 -2.2,5.6 -2.8,8.2 -1.3,4.8 -1.4,9.5 -0.4,14.8 1.3,7.1 1.1,4.5 -3.8,9.8 -5.3,6 -2.2,14.5 0.6,20.6 1.9,4.3 3.5,8.3 5.4,12.2 l 17.7,35.3 c 6,11.1 13,21.9 21.1,31.8 l 25.1,27.8 c 3,3 5.5,5.9 8.9,8.7 1.8,1.5 2.8,2.5 4.5,4.1 1.6,1.6 3,2.6 4.9,4.2 7.1,6.2 24.3,20 33.4,20 3.5,0 5.2,-1.2 7.1,-2.6 9.1,2.5 12.7,9.1 27,-3.2 3.5,-2.9 3,-1.4 7.7,-0.8 17,1.8 35,-1.3 48.8,-5.9 11.3,-3.9 21.8,-8.3 30.8,-14.3 10,-6.7 16.4,-11.8 23.6,-21.4 6.9,-9.4 11.4,-21.4 12.3,-33.4 3.8,2.6 10.1,11 13.8,14.9 7.4,7.4 15.6,12.9 23.8,19.3 4,3.2 3.6,4.5 9.1,2.1 14.5,-5.9 24.4,-11.3 36.6,-21.6 1.6,-1.4 2,-1.9 3.9,-3.3 1.5,-1.3 2.3,-2.1 3.6,-3.5 4.9,-4.9 9.5,-9.6 13.6,-15.1 l 11.3,-17.5 c 1.4,-2.3 1.4,-2.6 0,-4.9 -4.6,-7.6 -2.3,-5.5 2.5,-13.5 4.7,-7.9 8.7,-15.7 9.6,-25.1 0.5,-3.2 -0.2,-3.3 -1.9,-4.9 -4.7,-4.3 -8.7,-9.6 -13.8,-13.5 -11,-8.4 -25.6,-9 -38.1,-4 -2.1,0.9 -2.8,1.9 -4.8,2.3 -2.7,-1.9 -4.5,-4.3 -6.7,-6.9 -4.1,-4.9 -17.3,-17 -20,-21.1 5.3,-7.9 4.9,-2.5 7.5,-18 2.1,-13.4 10.8,-57.1 10.8,-67.5 0,-4.5 -5.3,-10.4 -7.7,-13.1 -2,-2.3 -2.1,-4.1 -2.8,-7.6 -4.2,-20.7 -10.1,-40.7 -14.4,-61.3 -1.2,-5.4 -2.9,-11.8 -4.3,-17.2 -1.8,-7.4 -3.3,-18.4 -7,-25 -3.8,-6.4 -13.2,-4.5 -17.9,-0.5 -3.9,3.2 -10.2,26.8 -12,32.5 l -10.2,34.2 c -0.9,3.5 -2.6,8.2 -2.6,12.4 0,3.2 5.3,20.9 6.6,23.4 -6.3,-1.4 -12.8,-5.2 -19.6,-5.2 -12.3,0 -23.4,8.8 -31.5,15.4 -9,7.4 -18.9,13.7 -28.7,19.6 -9.1,5.5 -22.7,13.7 -33.8,13.9 -4,0.1 -6,0.5 -9.1,0.7 -1.1,-1.6 -2.2,-3 -3.3,-4.6 l 8.7,-14.2 c 5.4,-10.8 9.8,-21.2 12.4,-33.3 1.5,-7.5 4.2,-22.7 3.8,-30.8 -0.1,-2.8 -0.6,-2.5 -0.7,-5.3 -0.1,-1.9 0.1,-4 0,-5.9 -2.2,-27.4 -13.2,-52.9 -30.1,-73.6 -2,-2.3 -3.8,-4 -5.5,-6.3 -6,-7.7 -17.3,-16.1 -25.1,-21.2 -16.4,-11 -43.1,-22.2 -70.4,-22.2 -23,0 -40.1,3.5 -60.2,12.2 -21.6,9.3 -39.4,25.3 -53.3,43.8 -5,6.7 -8.2,12.5 -12.2,20.5 -7.8,15.3 -13.5,34.7 -13.5,52.1 z"
   id="path826" />
		<path
   class="st0"
   d="m 727.4,315.9 c 0,10.9 1.4,9.1 5.9,17.6 -6.8,0 -8.6,0.1 -13.7,2 -1.8,0.7 -3.5,1.6 -5.3,2.6 -1.8,1.1 -2.9,2.2 -4.6,3.3 1.2,-7.4 0.6,-14.3 -3.3,-20.9 -0.9,-1.6 -2,-2.6 -2.6,-4.6 l 9.8,0.6 c 6.8,0 10.8,-6.3 15,-9.1 -0.6,2.7 -1.2,5 -1.2,8.5 z m -13.1,-5.3 c -5.7,0 -20.6,-2.6 -26.1,-3.9 5.6,8.2 16.4,15.8 16.4,28 0,7.1 -3.2,13.7 -3.3,20.3 5.3,-2.8 10.4,-8.8 17.3,-12.7 8.8,-4.9 15.7,-2.6 26.4,-1.8 -2,-7.6 -11.7,-11.7 -11.7,-24.1 l 5.2,-25.4 c -2.9,0.8 -9.3,7.9 -11.6,10 -1.8,1.8 -10.7,9.6 -12.6,9.6 z"
   id="path828" />
		<path
   class="st0"
   d="m 745.9,500 c 0,10.9 1.4,9.1 5.9,17.6 -6.8,0 -8.6,0.1 -13.7,2 -1.8,0.7 -3.5,1.6 -5.3,2.6 -1.8,1.1 -2.9,2.2 -4.6,3.3 1.2,-7.4 0.6,-14.3 -3.3,-20.9 -0.9,-1.6 -2,-2.6 -2.6,-4.6 l 9.8,0.6 c 6.8,0 10.8,-6.3 15,-9.1 -0.6,2.8 -1.2,5 -1.2,8.5 z m -13.1,-5.2 c -5.7,0 -20.6,-2.6 -26.1,-3.9 5.6,8.2 16.4,15.8 16.4,28 0,7.1 -3.2,13.7 -3.3,20.3 5.3,-2.8 10.4,-8.8 17.3,-12.7 8.8,-4.9 15.7,-2.6 26.4,-1.8 -2,-7.6 -11.7,-11.7 -11.7,-24.1 l 5.2,-25.4 c -2.9,0.8 -9.3,7.9 -11.6,10 -1.8,1.7 -10.7,9.6 -12.6,9.6 z"
   id="path830" />
		<path
   class="st0"
   d="m 134.9,696.7 c 0,9.5 1.2,8 5.1,15.4 -5.9,0 -7.5,0.1 -12,1.7 -1.5,0.6 -3.1,1.4 -4.6,2.3 -1.5,0.9 -2.6,1.9 -4,2.9 1,-6.5 0.5,-12.5 -2.9,-18.3 -0.8,-1.4 -1.7,-2.3 -2.3,-4 l 8.6,0.5 c 5.9,0 9.4,-5.5 13.1,-8 -0.5,2.4 -1,4.4 -1,7.5 z M 123.4,692 c -5,0 -18.1,-2.3 -22.9,-3.4 4.9,7.2 14.4,13.8 14.4,24.5 0,6.3 -2.8,12 -2.9,17.7 4.6,-2.5 9.1,-7.7 15.2,-11.1 7.7,-4.3 13.7,-2.3 23.1,-1.5 -1.7,-6.7 -10.3,-10.3 -10.3,-21.1 l 4.5,-22.3 c -2.6,0.7 -8.1,6.9 -10.2,8.7 -1.4,1.7 -9.2,8.5 -10.9,8.5 z"
   id="path832" />
		<path
   class="st0"
   d="m 56.1,519 c 6.6,6.9 6.4,4.9 14.4,7.6 -4.3,4.1 -5.3,5.3 -7.5,9.6 -0.7,1.5 -1.2,3.2 -1.8,4.8 -0.5,1.7 -0.5,3.2 -0.9,4.8 -3.7,-5.4 -8.3,-9.4 -14.7,-11.2 -1.6,-0.5 -2.8,-0.4 -4.4,-1.3 l 6.6,-5.6 c 4.3,-4.1 3,-10.5 3.9,-14.9 1.3,2.2 2.2,3.9 4.4,6.2 z m -11.5,4.6 C 41,527.1 30,534.5 25.7,537 c 8.5,1.8 20,0 27.3,7.7 4.3,4.5 6.3,10.6 10.2,14.8 1.6,-5 1.3,-11.9 3.3,-18.5 2.6,-8.4 8.4,-11.1 15.6,-17.1 -5.9,-3.6 -14.5,-0.3 -22,-8.1 L 48,496.6 c -1.4,2.3 -1.1,10.6 -1.3,13.3 -0.1,2.2 -0.9,12.6 -2.1,13.7 z"
   id="path834" />
		<path
   class="st0"
   d="m 444.7,278.4 c 0,5.6 0.7,4.7 3,9 -3.5,0 -4.4,0.1 -7.1,1 -0.9,0.4 -1.8,0.8 -2.7,1.3 -0.9,0.5 -1.5,1.1 -2.4,1.7 0.6,-3.8 0.3,-7.4 -1.7,-10.7 -0.5,-0.8 -1,-1.3 -1.3,-2.4 l 5.1,0.3 c 3.5,0 5.5,-3.3 7.7,-4.7 -0.3,1.5 -0.6,2.7 -0.6,4.5 z m -6.7,-2.8 c -3,0 -10.6,-1.3 -13.4,-2 2.9,4.2 8.4,8.1 8.4,14.4 0,3.7 -1.6,7.1 -1.7,10.4 2.7,-1.4 5.4,-4.5 8.9,-6.5 4.5,-2.5 8.1,-1.3 13.6,-0.9 -1,-3.9 -6,-6 -6,-12.4 l 2.7,-13.1 c -1.5,0.4 -4.8,4 -6,5.1 -1,1 -5.5,5 -6.5,5 z"
   id="path836" />
		<path
   class="st0"
   d="m 574.3,285.3 c 0,7 0.9,5.9 3.8,11.3 -4.4,0 -5.5,0.1 -8.8,1.3 -1.1,0.5 -2.3,1.1 -3.4,1.7 -1.1,0.7 -1.9,1.4 -2.9,2.1 0.8,-4.7 0.4,-9.2 -2.1,-13.4 -0.6,-1.1 -1.3,-1.7 -1.7,-2.9 l 6.3,0.4 c 4.4,0 6.9,-4.1 9.6,-5.9 -0.5,1.7 -0.8,3.1 -0.8,5.4 z m -8.5,-3.4 c -3.7,0 -13.2,-1.7 -16.8,-2.5 3.6,5.3 10.5,10.2 10.5,18 0,4.6 -2,8.8 -2.1,13 3.4,-1.8 6.7,-5.6 11.1,-8.1 5.6,-3.2 10.1,-1.7 16.9,-1.1 -1.3,-4.9 -7.5,-7.5 -7.5,-15.5 l 3.3,-16.3 c -1.9,0.5 -5.9,5 -7.4,6.4 -1.1,1.1 -6.8,6.1 -8,6.1 z"
   id="path838" />
		<path
   class="st0"
   d="m 189.6,874.7 c 0,10.9 1.4,9.1 5.9,17.6 -6.8,0 -8.6,0.1 -13.7,2 -1.8,0.7 -3.5,1.6 -5.3,2.6 -1.8,1.1 -2.9,2.2 -4.6,3.3 1.2,-7.4 0.6,-14.3 -3.3,-20.9 -0.9,-1.6 -2,-2.6 -2.6,-4.6 l 9.8,0.6 c 6.8,0 10.8,-6.3 15,-9.1 -0.6,2.8 -1.2,5 -1.2,8.5 z m -13.1,-5.3 c -5.7,0 -20.6,-2.6 -26.1,-3.9 5.6,8.2 16.4,15.8 16.4,28 0,7.1 -3.2,13.7 -3.3,20.3 5.3,-2.8 10.4,-8.8 17.3,-12.7 8.8,-4.9 15.7,-2.6 26.4,-1.8 -2,-7.6 -11.7,-11.7 -11.7,-24.1 l 5.2,-25.4 c -2.9,0.8 -9.3,7.9 -11.6,10 -1.9,1.8 -10.8,9.6 -12.6,9.6 z"
   id="path840" />
		<path
   class="st0"
   d="m 454.1,854.4 c 0,6.4 0.8,5.4 3.4,10.3 -4,0 -5,0.1 -8.1,1.2 -1,0.4 -2.1,1 -3.1,1.5 -1,0.6 -1.7,1.3 -2.7,1.9 0.7,-4.3 0.3,-8.4 -1.9,-12.3 -0.6,-1 -1.2,-1.5 -1.5,-2.7 l 5.8,0.3 c 4,0 6.3,-3.7 8.8,-5.4 -0.4,1.8 -0.7,3.1 -0.7,5.2 z m -7.7,-3.1 c -3.4,0 -12.1,-1.5 -15.4,-2.3 3.3,4.8 9.6,9.3 9.6,16.5 0,4.2 -1.9,8.1 -1.9,11.9 3.1,-1.7 6.1,-5.2 10.2,-7.4 5.2,-2.9 9.2,-1.5 15.5,-1 -1.2,-4.5 -6.9,-6.9 -6.9,-14.2 l 3,-14.9 c -1.7,0.5 -5.4,4.6 -6.8,5.9 -1,0.8 -6.2,5.5 -7.3,5.5 z"
   id="path842" />
		<path
   class="st0"
   d="m 573.1,909.2 c 0,7.1 0.9,6 3.8,11.4 -4.4,0 -5.6,0.1 -8.9,1.3 -1.1,0.5 -2.3,1.1 -3.4,1.7 -1.1,0.7 -1.9,1.4 -3,2.1 0.8,-4.8 0.4,-9.3 -2.1,-13.6 -0.6,-1.1 -1.3,-1.7 -1.7,-3 l 6.4,0.4 c 4.4,0 7,-4.1 9.8,-6 -0.6,2 -0.9,3.4 -0.9,5.7 z m -8.6,-3.4 c -3.7,0 -13.4,-1.7 -17,-2.5 3.7,5.3 10.7,10.3 10.7,18.2 0,4.7 -2.1,8.9 -2.1,13.2 3.4,-1.8 6.8,-5.7 11.3,-8.2 5.7,-3.2 10.2,-1.7 17.2,-1.1 -1.3,-5 -7.6,-7.6 -7.6,-15.7 l 3.4,-16.6 c -1.9,0.5 -6,5.1 -7.6,6.5 -1.3,1.1 -7.1,6.2 -8.3,6.2 z"
   id="path844" />
		<path
   class="st0"
   d="m 742.2,740.4 c 0,7.1 0.9,6 3.8,11.4 -4.4,0 -5.6,0.1 -8.9,1.3 -1.1,0.5 -2.3,1.1 -3.4,1.7 -1.1,0.7 -1.9,1.4 -3,2.1 0.8,-4.8 0.4,-9.3 -2.1,-13.6 -0.6,-1.1 -1.3,-1.7 -1.7,-3 l 6.4,0.4 c 4.4,0 7,-4.1 9.8,-6 -0.6,1.9 -0.9,3.4 -0.9,5.7 z m -8.6,-3.5 c -3.7,0 -13.4,-1.7 -17,-2.5 3.7,5.3 10.7,10.3 10.7,18.2 0,4.7 -2.1,8.9 -2.1,13.2 3.4,-1.8 6.8,-5.7 11.3,-8.2 5.7,-3.2 10.2,-1.7 17.2,-1.1 -1.3,-5 -7.6,-7.6 -7.6,-15.7 l 3.4,-16.6 c -1.9,0.5 -6,5.1 -7.6,6.5 -1.3,1.1 -7.1,6.2 -8.3,6.2 z"
   id="path846" />
		<path
   class="st0"
   d="m 75.4,282.5 c 3.5,2.3 5.5,5.9 9.5,8.1 3,1.6 11.4,3.8 14.7,2.3 -1.6,6.9 -6.6,3.9 -6.6,24.1 -3.5,-2.2 -3.2,-3.6 -10.2,-6.7 -4.2,-1.8 -8.8,-2.5 -14.7,-2.5 2.6,-3.8 8.6,-7.4 8.6,-13.7 0,-2.5 -0.7,-10.1 -1.3,-11.6 z m 24.1,49 c 0,-16.4 -4.1,-23.9 6,-35.7 1.8,-2 5.7,-6.2 6.3,-8.7 -22.3,0 -21.4,2.9 -36.3,-13.1 -2.5,-2.7 -5,-7.4 -8.7,-8.4 0.2,0.6 5.2,27.4 3,31.2 -3.2,5.7 -12.9,12.5 -17.3,19.1 9.6,0 18.4,-4.7 29,0.5 8.7,4.1 10.6,10.2 18,15.1 z"
   id="path848" />
		<path
   class="st0"
   d="m 760.3,920.3 c 0.1,4.2 2.7,10.2 4.9,13.2 1.6,2.5 5,4.7 7.5,6.2 0.6,0.5 0.4,0.4 1.2,0.8 0.7,0.6 0.8,0.7 1.4,1.2 -3.9,0.9 -8.1,3.8 -10.8,6.2 -2,1.9 -6.2,7.4 -6.8,10.1 -2.5,-1.8 -1.2,-4.8 -6.7,-11.6 -2.5,-2.9 -6.2,-6.9 -10.3,-8 2.1,-2.8 8.2,-1.9 12.5,-6.3 3.5,-3.2 4.5,-10 7.1,-11.8 z m -37.1,15.6 c 4.5,6.2 22.6,4.1 28.4,24.4 l 3.5,14.2 c 8.9,-10.2 4.3,-21.6 27.1,-29.2 2.3,-0.8 4.3,-1.8 6.2,-2.2 l -10.9,-7.3 c -8.8,-5.3 -10.7,-9.1 -12.7,-21.3 -0.8,-4.8 -2.1,-9.1 -3.2,-13.8 -1.4,1.8 -4.7,10.4 -5.6,12.7 -1.1,2.5 -1.5,4.2 -2.6,6.6 -5.5,11.4 -2.8,9 -22.5,14.1 -2.6,0.5 -4.9,1.6 -7.7,1.8 z"
   id="path850" />
		<path
   class="st1"
   d="m 381.2,951.6 c -1.3,-1.8 -2.9,-2.6 -5.9,-2.6 2.2,1.9 2.8,2.5 5.9,2.6 z"
   id="path852" />
		<polygon
   class="st2"
   points="101.3,282.2 100.6,282 100.6,282.6 "
   id="polygon854" />
	</g>
</g>
</svg>
