<?xml version="1.0" encoding="UTF-8" standalone="no"?>
<!-- Generator: Adobe Illustrator 24.0.1, SVG Export Plug-In . SVG Version: 6.00 Build 0)  -->

<svg
   version="1.1"
   id="Layer_1"
   x="0px"
   y="0px"
   viewBox="0 0 842.09995 762.72412"
   xml:space="preserve"
   sodipodi:docname="empty-planet-light.svg"
   width="842.09998"
   height="762.72412"
   inkscape:version="1.1 (c4e8f9e, 2021-05-24)"
   xmlns:inkscape="http://www.inkscape.org/namespaces/inkscape"
   xmlns:sodipodi="http://sodipodi.sourceforge.net/DTD/sodipodi-0.dtd"
   xmlns="http://www.w3.org/2000/svg"
   xmlns:svg="http://www.w3.org/2000/svg"><defs
   id="defs29"><rect
     x="47.04174"
     y="21.504795"
     width="361.54938"
     height="129.02878"
     id="rect2757" /></defs><sodipodi:namedview
   id="namedview27"
   pagecolor="#ffffff"
   bordercolor="#111111"
   borderopacity="1"
   inkscape:pageshadow="0"
   inkscape:pageopacity="0"
   inkscape:pagecheckerboard="1"
   showgrid="false"
   inkscape:zoom="0.8272802"
   inkscape:cx="376.53506"
   inkscape:cy="313.0741"
   inkscape:window-width="1920"
   inkscape:window-height="1080"
   inkscape:window-x="0"
   inkscape:window-y="0"
   inkscape:window-maximized="0"
   inkscape:current-layer="Layer_1" />
<style
   type="text/css"
   id="style2">
	.st0{fill-rule:evenodd;clip-rule:evenodd;}
</style>
<g
   id="Layer_x0020_1"
   transform="translate(-0.1,-253.57587)">
	<g
   id="_412112264">
		<path
   class="st0"
   d="m 302.5,600 c 3.3,0 7.2,-0.4 9.6,-1 1.7,-0.4 2.5,-0.7 3.8,-1.6 2,-1.2 1.7,-1.6 3.7,-2.1 l 0.6,108.3 c -0.1,5.7 0.5,9.5 0.5,15.5 0,42.3 0.6,83.1 0.6,125 -4.2,0.3 -12.3,6 -17.4,0.7 -1,-1 -3.1,-3.8 -3.3,-5 -0.3,-1.6 -0.2,-13.9 0,-15.8 1,-9.4 0.4,-51.1 0.4,-63.8 0,-11.1 0.6,-21.1 0.6,-31.5 0.3,-43.5 0.9,-85.6 0.9,-128.7 z m 325.1,158.4 c 10.1,0 24.1,1.7 34.4,2.5 l 33.4,3.5 c 2.8,0.9 45.9,30.8 51.5,34.9 2.7,1.9 4.8,3.2 7.3,5.2 4.3,3.4 4.9,14.1 4.9,20 -6.4,-3.1 -34.1,-5 -41.3,-6.8 -14.3,-3.5 -28.7,-12.4 -41.8,-18.9 -15.7,-7.7 -20.4,-13 -41.1,-19.7 L 615.5,774 c 2.5,-3.5 11.6,-13.6 12.1,-15.6 z m -140,12.5 c 0,-24 2.5,-44.7 2.5,-67.3 l 18.4,-0.5 c 0,5.7 1,10.9 1.2,16 0.9,15.9 3,35 3,50 -8,0.7 -16.4,1.8 -25.1,1.8 z m 56.6,6.6 c 0,9.9 10.8,-3.5 12.2,-4.6 9.5,-7.2 39.4,-8.3 47.2,15.5 2.7,8 2.1,24.1 0.9,32.5 -0.7,4.7 -0.6,4.4 -12.4,6.1 -20.4,2.8 -48.1,-0.2 -65,-8.4 -1.3,-0.6 -4.7,-2.4 -5.6,-3.4 -3,-3.3 -1.6,-22.3 -1.6,-26.4 0,-12.8 -1.5,-24.2 -1.8,-35.1 -0.1,-5.8 -1.2,-11.8 -1.2,-17.3 2.7,0 4.8,0.4 7.6,0.9 1.7,0.2 5.8,0.5 7.5,0.7 4.2,0.5 12.4,1.2 15.7,1.1 10.2,-0.4 13,-1.1 22,-2.8 4.3,-0.9 4.3,-2.1 3.8,1.9 -0.5,5.6 -0.2,10.6 -0.7,16 -1.7,14.9 1.2,4 -14.8,10.8 -4.2,1.8 -13.8,9.8 -13.8,12.5 z M 428.1,731 c 7.8,3.7 44.7,9.6 54.9,4.8 0,3 -0.6,4.5 -0.6,8.3 0,3.8 -0.3,5.9 -0.5,9 -0.5,6.1 0.2,12.9 -0.5,18.6 l 1.1,36.7 c 0.1,5.3 -2,7.8 -7.7,11.3 -3.7,2.2 -8.7,4.2 -13.4,5.7 -5.2,1.8 -9.4,2.8 -15.2,4 -14.2,2.8 -33.4,2 -45.3,-4.3 0,-13.6 -3.4,-28.3 7,-42.5 6.7,-9.1 13.6,-11.8 26.4,-11.8 7,0 22.7,8 22.7,2.5 0,-4.2 -3.3,-4.1 -9.2,-5.8 -7.7,-2.1 -8.6,-2.6 -15.8,-2.6 -0.3,-7.8 -3.9,-27.4 -3.9,-33.9 z m -2.4,-44.6 c 3.3,2.1 4.9,4.5 10.9,7.5 14.6,7.4 30.8,9.7 47.5,9.7 l -0.6,19.7 c 0,3.2 -0.5,3.5 -0.5,6.5 -4.7,0.4 -9.4,1.8 -15,1.8 -18.9,0 -36.7,-6.5 -40.4,-6.5 z m -8.3,-20.8 c 2.5,-3.6 6.3,-6.1 9,-9.5 l 8.6,-10.5 c 3.6,-4.7 12.6,-18 15.2,-22.9 3.8,0 6.3,0.4 9.8,1 l 30.2,2.6 c 0.6,2.6 18.2,28.1 20.6,31.1 10.9,13.3 23.1,26.2 37.1,36.1 4.6,3.3 20.5,14.8 26.7,15 l -0.5,20.9 c -2.2,0 -3.8,0.6 -5.6,1 -15.1,3.3 -25.8,3.1 -41.2,1.1 -12.5,-1.7 -10.7,2 -11.7,-9.8 L 513.1,692 c -0.4,-4.9 0.1,-5.2 -3.5,-7.2 -1.3,0.6 -1.8,1 -3,1.8 0,2.6 0.4,9.1 1.3,10.7 -5.3,0 -9.9,0 -14.4,0.5 -5.3,0.5 -10.4,-0.4 -14.8,-0.5 -12,-0.4 -17.6,-1 -27.2,-3.7 -19,-6 -24,-12.8 -34.1,-28 z m 80.4,-38.7 c 5.1,-1.2 4.2,0.4 10.7,-3 4.4,8.3 24.3,33.3 31.4,40.6 9.3,9.6 23.7,20.2 35.8,27.3 9.4,5.6 2.9,10.7 0,10.7 -9.5,0 -39.2,-25.9 -45,-31.8 l -13.6,-15.1 c -5.5,-7 -13.8,-18.9 -18.4,-26.7 -0.7,-1.3 -0.6,-1.4 -0.9,-2 z m -92.3,28 14.3,-17.2 c 5.5,-7.4 8.2,-10.2 13,-19.1 l 10.7,3 -17.2,25 c -3.1,4 -6.1,7.6 -9.7,11.1 -7.8,7.9 -11.1,0.3 -11.1,-2.8 z M 565,590 c 2.5,0 3.4,-0.5 5.7,-0.9 1.7,-0.3 4.7,-0.6 5.8,-0.9 4.3,-0.4 8,-0.3 12.2,-0.9 6.8,-1 17.2,-1.1 25.2,-1.1 2.6,0 3.6,8.3 4.9,12.3 3.4,10.5 8.1,33.1 8.1,44.3 0,7.1 -3.1,14.6 -5.8,19.1 -6.4,10.6 -8.9,10.7 -20.4,10.7 l -22,-2.5 c -9.4,-2.2 -0.5,-23.7 -7.2,-23.7 -4.1,0 -3.5,4.9 -3.5,10.1 -6,-2.9 -10.5,-3.8 -5.7,-17.5 0.7,-2.2 3.3,-6.6 3.3,-8.7 V 603.6 C 565.7,598.2 565,595.2 565,590 Z M 430.5,562.5 c 7.9,0 32.7,3.6 41.1,3.6 l 4.5,15.7 c 1,2.8 1.1,2.6 4.4,2.8 8.6,0.3 16.8,2.4 25.7,2.4 0,14.1 -1,23.8 -11.7,31.2 -6.3,4.2 -6.3,1.2 -18.2,0.9 -6.1,-0.1 -13.3,-1.2 -19.4,-2 -13.2,-1.8 -26.1,-1.9 -28.2,-14.5 -1.5,-8.8 1.8,-29.3 1.8,-40.1 z m -28,47.1 c 0,9.9 -0.4,19 0.6,28.6 0.3,2.9 1.2,4.7 1.2,7.8 0,1 -10.2,10.1 -1.1,18.3 2.4,2.1 4.6,3.1 8.8,3.1 0.9,3.6 3.1,5.9 5.1,8.7 3.4,4.7 2.7,4.2 2.6,11.7 0,4.5 0,9.1 0,13.7 l 6,64.3 c -3.3,0.1 -9.2,1.9 -11.8,3.2 -7.5,3.7 -9.3,8.3 -10.6,9.6 -1.9,1.7 -4.6,1.3 -7.9,1.6 l -68,7.6 c 0,-3.6 -0.5,-6.7 -0.5,-11.3 v -35.7 c 0,-15.2 0.7,-32.7 0,-47.6 -0.9,-16.5 -0.6,-30.4 -0.6,-47.1 0,-16.6 -0.5,-31.5 -0.5,-47.6 3.8,-0.3 8.8,-1.2 12.4,-1.9 27.8,-5.5 28.7,-4 54.1,-19.1 l 18,-11.8 c -0.9,2 -1.9,7.3 -2.5,10.1 -0.7,3.1 -1.5,7.4 -2.2,10.8 -1.6,6.1 -3.1,15.5 -3.1,23 z m -92.9,-58.3 c 0,-8.7 -0.2,-11 3.2,-19.6 3.5,-9 6,-8.4 12.3,-8.4 9.7,0 23.1,16 24.4,16 3.1,0 13.8,-4 17.3,-4.7 2.8,5.3 4.3,6.2 6,13 3,12.6 2.6,17 1.8,28.7 -0.3,4 -0.4,4.1 -3.4,5.6 -9.3,4.5 -17,5.8 -28.1,7.6 -7,1.2 -9.4,2.2 -17.3,2.2 v -19 c 0,-2.8 7.2,-3.7 7.2,-19 0,-1.9 -1.5,-2.4 -3,-2.4 -6.2,0 0.3,13.9 -10.6,16.3 -3.7,0.7 -6.4,-1 -7.7,-4.6 -1,-2.6 -2.1,-8.7 -2.1,-11.7 z M 506.7,581 c -7.8,0 -18.2,-2.4 -25.6,-2.4 -0.1,-2.5 -3.7,-13.6 -4.8,-17.9 -14.3,-1.2 -31.2,-4.2 -45.2,-4.2 0,-4.9 1.8,-24.3 4.4,-29.6 4.3,-8.7 22.8,-6 32.5,-5.6 l 32.5,3.3 c 5.5,1 8,4.3 8,10.4 0,16.1 -1.8,30.5 -1.8,46 z m 16.1,-50 c 0,-1.3 4,-7.3 5,-8.7 2,-2.9 3.7,-4.9 5.9,-7.7 1.9,-2.4 10.5,-12.9 12.8,-14.5 1,3.7 1.7,8.8 2.4,12.5 3.8,23.1 10.8,73 10.8,95.8 v 21.5 c 0,2.7 -15.3,24.4 5.3,32.1 4.9,1.8 2.9,3.3 4.8,7.8 1.2,2.9 2.7,5.6 6.5,5.9 v 9 c -4,-1.1 -18.7,-12.3 -23.3,-16 -8.3,-6.6 -20.1,-21.6 -26.5,-29.4 l -13.3,-18.8 c 5.8,-4 7.9,-16.7 8.3,-23.8 0.1,-2.8 0.3,-7 0.7,-9.9 l 2.1,-24.6 c 0.1,-1.8 -0.1,-3.5 0.1,-5.2 2.1,-17.7 -1.6,-24.2 -1.6,-26 z m -9,-1.2 c 8.2,5.5 4.6,26.3 4.2,35.2 l -3.4,38.8 c -1.4,7.5 -4,14 -12.1,15.9 3.2,-4.8 6.4,-6.1 8.6,-17.1 1.4,-7 1.2,-16.3 1.6,-24.6 l 1.2,-24.4 c 0.1,-6.3 2.3,-18.7 -0.1,-23.8 z m -210.1,13.1 c 0,12 -1.1,30.9 15.4,30.9 0,7.2 0.4,16.1 -7.7,19 -4.2,1.5 -13,1.2 -18.2,0.4 -6.7,-1.1 -9.8,-2.6 -11.9,-8.4 -4.2,-12.2 -3.2,-47.5 1.3,-52.8 4.4,-5.2 15.6,-5.2 25.2,-5.2 -0.2,2.1 -1.8,5.5 -2.5,7.7 -0.6,2.1 -1.6,5.5 -1.6,8.4 z m 7.7,-22 h -8.3 l 0.6,-122.1 c 0,-6.5 0.5,-11.3 0.5,-17.2 h 9 c 3,0 2.7,0.5 5.3,0.5 l 0.5,135.2 c -5.4,1.2 -5.7,3.6 -7.6,3.6 z m 116.7,93.5 c -1.1,4.3 -15.2,23.4 -18.4,25.6 -0.3,-3.7 -1.2,-6.1 -1.2,-10.7 0,-34.5 0.4,-28.8 7.1,-60.7 1,-4.8 2.2,-8.7 3.3,-13.4 l 14,-52.7 c 1.9,1.4 5.8,12.3 6,14.3 -11.5,2.7 -12.6,20.4 -13.2,31.5 l -2.4,28 c -0.4,6.2 -1.4,22.3 -0.6,27.9 1,6.3 3.6,7.6 5.4,10.2 z m 0.6,-119.7 -13.7,51.2 c -0.5,2 -1.2,4.1 -1.7,6 -0.7,3.5 -0.6,3.4 -3,5.3 -3.2,2.4 -6,4.8 -9.5,7.2 -1.7,1.2 -2.6,2 -4.5,3.2 l -15.8,9.2 c 2,-8.6 0.1,-27.1 -3.2,-35.5 -1.2,-2.9 -4,-6.8 -4.5,-9.2 l 15.7,-7.5 c 11.7,-5.2 22.6,-12.9 31.8,-21.7 2.5,-2.4 5.1,-6 8.4,-8.2 z m 122.7,0.5 c 5.6,-3.6 17.3,-13.3 22.7,-16 l 6.1,11.1 c 6.1,12.2 15.2,36.9 19.9,50.4 1.6,4.7 2.8,8.9 4.5,13.4 1.7,4.3 2.9,8.4 4.4,12.9 1.5,4.4 3.4,9.2 4.4,13.4 -14.4,0 -22.8,0.3 -37.4,1.9 l -11.3,1.7 c 0,-8.1 -7.4,-58.9 -8.8,-67.5 -1,-4.6 -2.9,-18.3 -4.5,-21.3 z m -122.7,-0.5 z m 1.2,-13.7 c 0,-2.4 1.9,-4.4 4.1,-5 1.2,-0.3 1.9,-0.3 3.1,0.1 3.4,1.5 7.7,10.1 9.5,13.2 1.2,1.8 2.1,3.8 3,6 l 7.7,19.7 h -12.5 c -1.3,-5.8 -14.9,-33.8 -14.9,-34 z m 104.2,-2.4 z m 0,0 -10.9,11.2 c -7.4,7.8 -8.1,8.9 -14.5,17.6 -2.7,3.6 -4.9,7.4 -7.4,11 -2.7,0 -6.3,-0.5 -9.2,-0.9 -2.9,-0.4 -6.5,-0.7 -9.2,-0.9 -6.4,-0.4 -12.2,-1.2 -19,-1.2 -1.4,-2.8 -2.5,-7.3 -3.5,-10.3 -3.2,-8.7 -4.2,-10.9 -8.4,-18.9 -1.6,-3.2 -3.7,-5.9 -5.3,-9 5,1.2 11.3,4.5 19.5,6.1 15.9,3.2 31.3,4.2 47.6,0.9 4.2,-0.9 6.7,-1.4 10.6,-2.6 3.3,-0.9 6.3,-2.2 9.7,-3 z m -15.5,47 c -3.3,-2.1 -5.7,-4.2 -10.7,-5.3 1,-4 11.4,-16.9 14.6,-21 4.8,-5.8 12.5,-13.5 18.3,-18.1 3.2,-2.5 5,-4.2 8.4,-6.4 8.2,-5.5 23.4,-17.3 23.4,-3.3 0,1.6 -5.6,4.9 -7.1,5.9 -6.5,4.3 -18.1,12.9 -23.1,18.1 -6.5,6.5 -7.2,8.1 -12.5,14.2 -3.9,4.7 -8.4,10.3 -11.3,15.9 z m -99.4,-74.4 c 2.1,0.5 5.8,2.4 7.9,3.4 2.6,1.2 5.5,2.2 8.1,3.2 33.7,12.2 61.7,14.3 97.2,5.5 12.4,-3.2 31.8,-12.5 32.6,-12.6 -1.9,2.9 -10.4,9 -13.9,11.1 -19,11.4 -35,17.4 -58.7,17.4 -25.9,0 -47.3,-7.6 -66.3,-21.9 -2.6,-1.9 -5.2,-3.4 -6.9,-6.1 z m 0,0 z M 565,450.6 Z M 382.8,372.1 c 0,-5.2 0.5,-18.9 2.1,-22.3 0.6,-1.5 1.7,-1.9 2.9,-3.1 0.1,0 0.2,-0.2 0.3,-0.2 0.1,-0.2 0.4,-0.5 0.5,-0.6 6.2,-6.8 18.7,-15.2 26.4,-20.1 11.8,-7.5 23.8,-12.4 38.3,-16.5 24.4,-7 53,-6.4 77.2,0.2 15.8,4.3 18,5.8 31.1,12.4 6.4,3.3 20.4,12.8 26.1,17.4 0.9,0.6 10.7,10.2 10.9,10.5 1.3,3 2,17.1 2,21.7 0,20.9 -6.7,41.5 -17,57.4 -2.9,4.5 -9.5,7.5 -14.3,10.7 -18.2,12.3 -43.5,19.4 -65.2,21.7 -1.9,0.2 -3.8,0.1 -5.9,0.1 -3.1,0 -3.7,0.4 -6,0.5 -2.7,0.2 -2.6,-0.4 -5.2,-0.5 -8.8,-0.5 -5.3,0.3 -17.2,-1.3 C 447,456.9 426,447.9 407,435.3 c -2.7,-1.8 -5.1,-2.7 -6.8,-5.7 -3.4,-5.8 -5.8,-9.7 -8.7,-16.4 -4.5,-10.7 -8.7,-26.1 -8.7,-41.1 z M 282.2,326.2 c 10.5,0 21.9,-0.2 31.1,2.9 7.5,2.5 8.8,7 8.8,16.8 v 30.4 c -3,0 -3.6,-0.6 -7.1,-0.6 -18.8,0 -13.6,-0.2 -14.3,-9.5 -1.3,-15.1 -2.4,-17.3 -18.5,-17.3 z m -208.4,6 c 34,0 67.3,-1.9 101.3,-1.8 4.8,0 7.8,-0.6 11.9,-0.6 l 89.4,-1.7 v 19.6 l -37.5,0.6 c -4.9,0 -7.5,0.6 -12.5,0.5 -17.6,0 -33.5,0.6 -51.2,0.6 l -37.5,0.6 c -4.9,-0.1 -7.4,0.5 -12.5,0.5 -17.6,0 -33.4,0.6 -51.2,0.6 -4.8,-8.8 -1.3,-15 -0.2,-18.9 z m 529.9,6.5 c 8,4.3 9.2,4 10.9,9.9 3.2,12.2 2.8,25.1 0.2,37.4 -0.9,4 -0.2,3.3 -3.5,4.8 -2.1,1 -4,1.7 -5.8,2.6 0.6,-8.7 2.4,-9.9 2.4,-23.2 0,-5.6 -0.6,-11.3 -1.4,-16.5 -0.3,-2.1 -0.7,-5 -1.3,-7.7 -0.5,-2.7 -1.3,-4.5 -1.5,-7.3 z m -228,30.9 0.9,13.6 c 0.3,3 1.5,8.2 1.6,11.4 l -9.4,-4.3 c -2.1,-1.2 -1.5,-0.4 -2,-2.8 -3,-11.8 -3.3,-28.4 0.3,-39.8 1.6,-5 1.1,-4.2 5.6,-6.3 2.8,-1.4 4.9,-3.3 7.9,-4 -2.8,11.7 -4.9,19.4 -4.9,32.2 z m 13.1,-33.9 z m 194.1,-24.4 z m -182.2,0 z m -11.9,24.4 c 0.1,-1.5 1.5,-5.1 2.1,-6.7 1.2,-2.7 2.6,-3.3 4.7,-4.9 l 8.2,-6.1 c 35.7,-25.8 77.2,-35.5 121.5,-25.3 24,5.5 43.4,16.6 62.2,31.2 2.5,2 3.5,1.6 4.8,4.8 0.9,2.2 1.8,4.6 2.4,7.1 l -15.1,-11 c -7.3,-5.3 -20.3,-12.3 -28.8,-15.9 -34.9,-15.1 -83.4,-15.7 -118.3,-0.1 -14,6.3 -26.7,13.7 -38.8,23.1 -1.7,1.3 -3.2,2.6 -4.9,3.8 z m 11.9,-24.4 c 0.6,-2.2 5.5,-8.4 7.1,-10.3 15.5,-17.3 29.4,-27.8 53,-35.1 28.6,-8.9 61.2,-4.6 86.2,10.4 6.1,3.7 14.9,9.9 20,15.1 1.7,1.7 2.9,2.9 4.5,4.5 1.7,1.7 2.5,3 4.2,4.8 1.7,1.8 6.7,8.3 7.3,10.6 -2.4,-0.6 -6.7,-4.3 -9.2,-5.8 -23.4,-14.2 -38.6,-19.9 -67.5,-23 l -14.4,-1.1 -27.2,2.7 c -17.4,2.9 -30.4,7.8 -45,15.6 z m -42.3,54.8 c 0,10.4 0.9,15.5 2.9,25.1 0.7,3.4 2.7,3.6 5.7,5 l 11.2,4.8 c 2.9,0.9 1.7,0 2.6,2.8 0.9,3.1 1.6,5.5 2.7,8.1 1.8,4.8 4.2,10.3 6.7,14.6 9.2,15.3 20.5,29.1 35.4,39 1.8,1.2 4.7,3.5 6.6,4.1 -1.5,2 -0.2,0.4 -2.5,1.7 -7.2,4 -6.8,9.8 -3.4,16.1 -6.7,10.1 -22.8,22.7 -32.6,27.6 l -14.6,7.3 c -9.1,4.4 -17.5,8 -27.8,10.4 -2,-1.4 -3.4,-3.2 -5.7,-5 -5.3,-4.1 -10.3,-8.9 -17.2,-10.2 -2.8,-0.5 -3,0.3 -3.3,-2.6 L 324.6,382 h 3.5 c 0,-14.2 2.6,-34.2 -1.2,-47.6 -2.5,-9 -11.1,-11.3 -19.2,-12.9 -5.9,-1.3 -24.1,-1.9 -30.8,-1.9 l -0.6,2.4 c -5,0 -8,0.6 -12.4,0.6 -26.1,-0.1 -51.6,1.2 -77.4,1.2 -5,0 -8.3,0.5 -12.5,0.5 -8.4,0 -18,-0.4 -26.2,0 l -12.5,0.6 c -4.3,0 -8.9,-0.2 -13.2,0 L 71,326.1 c -1.3,2.4 -2.5,3.3 -3.6,5.9 -4.1,9.2 0.3,25 3.6,25 19.2,0 37,-0.5 55.9,-0.5 18.7,0 37.5,-1.2 55.9,-1.2 19.5,0 37,-0.5 56.7,-0.6 l 13.6,-0.5 c 4.8,0 9.6,-0.1 14.3,0 2.9,0 5,-0.5 6.6,-0.5 4,-0.1 2,1.1 5.9,1.2 6.3,0 7.9,-0.1 13,1.1 l 1.8,12 c 0.1,2 0,4.5 0,6.5 0,3.3 0.5,4 0.6,6.5 h 2.4 l -0.6,140 c -8.2,0.1 -17.6,2.6 -21,10.5 -1.4,3.3 -1.9,9.3 -2.6,13.6 -0.6,4.8 -0.6,10.4 -1.3,14.8 -1,6.5 1.5,22.3 3.7,28.1 1.5,3.7 3.8,7.2 7.3,8.9 3.3,1.6 8.4,2.8 13.3,2.8 0,32 -0.6,63.3 -0.6,95.8 0,16.6 -0.5,31.2 -0.5,47.7 0,16 0,32.1 0,48.2 l -32.1,3.6 c -5.9,0.7 -13.2,0.9 -19.1,2.2 -2.9,-4.2 -31.8,-34.6 -33.4,-35.1 -1.9,0.1 -4.2,0.7 -6,1.1 l -42.3,8.3 c -7.9,1.8 -15.9,3.1 -24.2,4.5 -11.1,1.8 -10.8,2.5 -20.6,8.4 -11.9,7.1 -24.4,13.8 -34.1,23.6 -3.6,3.6 -9,6.6 -9.2,12.3 l 1.1,20.5 c 0.6,4.6 0.2,9.8 0.2,14.6 0,2.1 -8.7,5.5 -10.6,6.6 -2,1.3 -3.6,1.9 -5.8,3.2 -8.8,5.9 -17.4,12.3 -25.1,19.5 -1.7,1.6 -2.8,2.4 -4.5,3.8 l -14.4,12.4 c -1.2,0.9 -1.3,1.1 -2.2,1.9 -1.3,1 -1.5,1 -2.7,2.1 -8.7,8 -10.3,4.6 -10.3,16.5 3.3,-2.2 6,-4.9 9.1,-7.6 l 22.6,-19 c 8.3,-7.9 23.7,-20.7 32.8,-25.6 l 8.1,-4.4 c 0.9,-0.5 0,0.1 1.1,-0.7 0.6,-0.4 1,-0.7 1.4,-1.1 1.8,0.7 0.7,-1.3 1.2,1.8 2.4,0.2 4.4,0.9 7.1,1.3 12.3,1.6 24.3,4.2 37.1,2.5 l 9.9,-0.7 c -3.1,-2 -35.8,-6.1 -41.7,-7.1 -7.3,-1.2 -7.2,1.6 -7.1,-17.3 l -1.2,-23.8 c 1.3,-0.9 10.5,-11.8 24.3,-20.4 6.1,-3.7 22.7,-14.8 28.6,-16.6 3.8,-1.2 14.2,-2.4 18.9,-3.2 12.5,-2.1 25.5,-5.3 37.9,-7.4 3.1,-0.5 17.1,-4.2 18.9,-3.6 1.4,0.3 7.3,7.6 8.8,9.1 3.2,3.1 6,5.6 8.9,9.1 2.9,3.4 5.8,5.8 8.8,9.1 l 8.1,9.6 c -6.5,12.5 -15.6,25.3 -26.7,34 -2.1,1.6 -10.2,7.8 -11.3,9.5 2.1,-0.5 5.6,-2.1 7.5,-3.2 2.5,-1.5 4.5,-2.5 7,-3.8 9.2,-5.6 16.5,-12.4 22.2,-21.8 3.4,-5.7 8.3,-10.8 6.7,-17.6 10.7,-0.2 35.1,-4.7 45.9,-4.7 v 44.1 c 0,2.4 6.6,11.3 14.9,11.3 7.4,0 11.8,-3.4 17.9,-4.8 v -54.8 c 2.2,0 6.1,-0.6 8.7,-1 l 53.8,-5.7 c 2.4,-0.3 6.6,-1.1 9.1,-1.2 -5.2,9.8 -6.2,30 -3.8,41.9 0.7,4.1 4.3,3.5 8.1,5 21.8,8.2 56.1,3.6 73.8,-7.5 3.7,-2.4 5.1,-3.8 8.1,-6.8 4,-4 3.1,-4.5 3.1,-11.8 0,-5.6 -0.6,-9.2 -0.6,-14.2 0,-5 0,-9.9 0,-14.9 8.3,-0.7 16.5,-1.8 25.7,-1.8 0,9.7 0.5,17.9 0.5,28 0,10.3 -2.5,13.8 9.3,19.8 18.4,9.4 50.5,13.3 73.1,9 4.3,-0.7 9,-2.2 12.8,-2.6 3.3,-14.1 4.7,-38.9 -3.5,-51.2 5.2,0.4 11.5,1.9 16.6,3 5.1,1.1 11,3 15.6,4.6 15.7,5.7 28.4,14.9 43.1,21.9 8.1,4 15.6,7.9 24.3,11.3 5,2 9.7,3.7 15.4,4.9 5.1,1.1 11.9,1.3 17.6,2 l 21,4 c 1.8,0.5 2.2,1.1 3.7,1.4 0.4,0 2.7,0.1 3.5,0.2 12.5,2.2 25.2,5.5 37.4,8.6 6.5,1.6 9.5,2.5 14.3,5.9 3.8,2.8 20.6,15.9 23.7,16.7 V 856 c -7.2,-3.8 -15.7,-11.5 -23,-16.4 -3.4,-2.4 -5.5,-2.7 -9.6,-4 -6.5,-2.1 -14.9,-3.5 -21.7,-5.2 -7.4,-1.8 -14.5,-3.1 -21.8,-4.8 0,-4.1 -2.7,-20.6 -4.2,-22.8 -1.4,-2.2 -58.7,-42.1 -63.2,-43.9 -7.8,-3.3 -47.7,-4.4 -60.3,-6.3 -3.3,-0.5 -9.7,-0.9 -12.9,-0.9 -0.5,2.1 -2.4,3.4 -3.7,5.1 -2.1,2.7 -11.5,12.9 -12.3,15.7 -10.6,-0.2 -8.9,-2 -14.1,-4.9 -4.2,-2.4 -11.2,-4.6 -16.8,-4.6 0,-6.6 1,-10.9 1.2,-17.2 l 1.6,-35.4 c 1.1,-7.9 5.6,-4.3 5.6,-14.1 0,-4.5 -1.8,-6.2 -4.8,-7.7 0.6,-2.8 0.6,-3.7 0.5,-7.2 -0.1,-7.7 -0.4,-3 25,-3 9.4,0 13.7,-5.3 18.3,-12.1 10.4,-15.5 7.8,-33.9 3.7,-51 -3,-12.8 -6.1,-24.7 -10.2,-36.9 -1.3,-3.7 -2.4,-8.1 -4,-12.1 -0.7,-2.1 -1.2,-4 -1.9,-5.8 -5.3,-13.4 -9.2,-27.6 -14.4,-41 -5.1,-13 -9.5,-26.1 -16.6,-38.3 -5.9,-10.3 -3.5,-2.4 -3.1,-10.8 0.1,-4.1 -2.1,-7.6 -5,-10.2 -1.9,-1.8 -3.3,-1.6 -6.1,-2.2 1.7,-2.6 6,-6.3 8.4,-8.8 11.3,-11.2 21.3,-28 25.7,-43.4 0.7,-2.5 0.9,-4.6 2.7,-5.7 1.2,-0.6 4.7,-2.2 6.1,-2.9 2,-0.9 3.6,-1.5 5.8,-2.6 3.3,-1.6 2.9,-1.6 3.6,-5.3 2,-10.8 2.5,-13.2 2.5,-24.3 0,-7.2 -0.6,-13.3 -2.8,-19.8 -0.3,-1.1 -1.7,-5 -2,-5.7 -2.1,-4 -16,-6.3 -18.3,-12.1 -4.3,-10.4 -9.6,-20.1 -16.5,-28.9 -2.5,-3.2 -4.7,-5.2 -7.1,-8.3 -3.3,-4.2 -11.7,-11 -16.3,-14.2 -16.1,-11.1 -34.8,-19.2 -55,-21.2 -3.1,-0.3 -11.1,-1.4 -14.2,-1.2 -33,2.7 -51.9,9.5 -76.5,30.2 -11.3,9.5 -19.1,21.7 -26.3,34.5 -7.8,14 0.4,8 -20,18.1 -4.8,2.4 -5.1,3.4 -6.7,8.8 -2.4,7.2 -3.1,13.6 -3.1,20.9 z"
   id="path4" />
		<path
   class="st0"
   d="m 63.7,423.2 -0.1,-35.1 c 0.1,-3.1 0.5,-3.3 0.6,-6 0.3,-4.6 0.6,-8.1 0.6,-12.5 9.6,0 17.6,0.6 26.7,0.6 4.6,0 9.2,0 13.8,0 4.8,0 8.2,-0.6 13.7,-0.6 4.5,0 9.1,0 13.7,0 5.3,0 9,-0.6 13.7,-0.5 9.8,0 17.6,-0.6 27.4,-0.6 4.5,0.1 7.9,-0.5 13,-0.5 l 34.5,-0.6 c 3.3,0 3.5,-0.5 6.5,-0.6 5.1,-0.1 9,0.5 13.2,0.6 9.2,0.3 10.4,-0.2 20.3,0.5 l 13.6,0.6 c 3.3,0 3.6,0.6 6.6,0.6 1.2,5.3 2.1,27.6 3.2,34.9 0.4,3.2 0.1,6 0.4,9.1 l 1.1,47.7 c 0,17.2 -1.2,32.6 -1.2,49.4 l -20.1,0.7 c -8.1,0.9 -36.3,1.5 -39.7,2 l -29.5,1.4 c -3.5,0.2 -7.3,-0.1 -10.7,0 -3.2,0.2 -5.5,0.6 -9.5,0.6 -4.3,0 -6.8,0.3 -10.2,0.5 -6.3,0.5 -14.3,0 -20.9,0 -3.6,0.1 -5.8,0.6 -10.2,0.6 -22.7,-0.1 -45.1,-1.2 -66.6,-1.2 L 66.1,481 c -0.1,-2.7 -0.5,-2.6 -0.6,-5.3 L 65,458.4 c 0,-4.7 -0.6,-7.3 -0.6,-11.3 -0.1,-8.4 -0.7,-15.2 -0.7,-23.9 z m 60.1,98.9 c 14.9,0 27.7,-0.6 42.3,-0.6 4.1,0.1 5.8,-0.6 10.1,-0.5 l 41.8,-1.7 c 3.3,-0.4 7.2,0.2 10.5,-0.2 5.8,-0.6 14.5,-1.2 21,-1.1 4.3,0 6,-0.6 10.2,-0.6 l 30.9,-1.7 c 1.1,-2.4 1.8,-44.4 1.8,-51.2 0,-4.2 0.5,-7.6 0.5,-12.5 0.1,-5 -0.5,-7.8 -0.5,-13.2 0,-4.3 0.1,-8.8 0,-13 l -2.1,-31.2 c -1,-6.4 -2.1,-29.8 -3.2,-30.8 -1.7,-1.7 -47.6,-2.9 -55.4,-2.9 -17,0 -32.4,1.2 -48.9,1.2 -4.8,0 -7.5,0.6 -11.9,0.6 -4.1,0 -8.4,-0.2 -12.5,-0.1 -4.3,0.2 -4.3,0.6 -11.9,0.6 -7.6,0 -8.1,0.5 -12.5,0.6 -16.4,0.4 -33.6,0 -50,0 -27.6,0 -24.9,-2.4 -25,5.9 0,3.6 -1.2,12.1 -1.2,18.5 l -0.3,24.2 c 1.2,7.7 0.3,16.7 0.3,24.7 0,8.4 1.8,27.5 1.8,35.7 0,5.8 1.9,46.6 2.9,47.7 1.6,1.6 9.2,0.4 12,0.4 3.7,0.1 4.7,0.6 11.9,0.6 3.8,0 8.8,-0.2 12.5,0.1 7.6,0.6 16.4,0.5 24.9,0.5 z"
   id="path6" />
		<path
   class="st0"
   d="m 640.6,1016.2 h 6 l 1.8,-44.6 c 1.4,-19.2 5.6,-15.8 27.1,-19.5 l 27.7,-3.7 c 6.3,9.5 7.2,9.7 12,21.9 0.5,1.3 1.1,2.9 2.1,3.8 2.2,1.8 2.4,0.4 4.4,0.4 1.2,-5.1 -1,-6.7 -4.8,-15.5 -1,-2 -1.9,-4 -3.1,-5.9 l -3.4,-6.1 c 4.3,-0.3 8.8,-1.7 13.7,-1.7 3.5,5.2 10.3,21.9 13.3,28.3 l 9.2,21.8 c 0.7,3.3 0.1,16.1 0.1,20.6 h 6 c 0,-25.1 3.6,-15.1 -8.3,-41.6 l -13.9,-30.8 c -3.8,-7.4 -14.9,-3.5 -24.4,-2.1 l -43.6,6.3 c -2.6,0.4 -6.3,1 -8.4,1.7 -10.5,3.2 -11.8,18.2 -12.1,27.8 -0.5,13 -1.4,26 -1.4,38.9 z"
   id="path8" />
		<path
   class="st0"
   d="m 610.9,972.2 c 0,5.7 4.5,6 6.5,-0.6 l 10.2,-32.1 c 1.1,-1.1 32,-6 36.1,-6.7 l 24.9,-4.2 c 13.2,-2.6 10.8,-2.2 22.9,1.3 20.3,6 16.5,0.1 24.2,19.5 l 16.9,40.7 c 2.8,6.2 1.2,5 1.2,12 0,5.6 -0.5,8.9 -0.5,14.2 h 5.9 c 0,-3.8 0.4,-7.1 0.6,-11.2 0.9,-17.2 1.7,-9 -4.1,-23.3 -4.9,-12.1 -15.2,-38 -20.1,-48.4 -2.4,-5 -5.5,-4.6 -11.2,-6.1 -6.2,-1.6 -21.9,-7.2 -27.3,-6.3 -19.6,3.5 -38.9,6.3 -58.5,10.1 -20.3,3.8 -14.1,-0.3 -23.6,28.1 z"
   id="path10" />
		<path
   class="st0"
   d="m 104.2,1001.4 c -4.3,0 -7.7,0 -11.4,-2.2 -3.4,-2 -3.6,-2.4 -4.1,-7.2 -0.9,-9.5 0.3,-10.7 3.8,-17.8 2.8,-5.8 5.5,-9.4 13.4,-7.9 8.7,1.6 9.1,7.9 9.1,16.7 0,6.3 -5.2,18.4 -10.8,18.4 z m 16.6,14.8 H 114 c -2.6,-0.1 -3.2,-0.7 -8.8,-3.4 -15.7,-7.6 -23.1,-8.6 -23.1,-25.1 0,-6.3 2.2,-10.9 4.4,-15.3 9.6,-19.2 20,-10.9 44.5,-10.9 6.2,9.3 9,16.9 5.2,30.9 -1.7,6.4 -5.1,15.2 -9.8,19.9 -1.1,1 -4.3,3.9 -5.6,3.9 z m -3,-49.4 c 4,0 5.8,0.6 10.2,0.6 1.7,7.2 3.5,1 3.5,16 0,4.2 -3,13.8 -4.5,16.9 -1.5,3 -6.6,11.1 -10.4,11.1 -0.7,0 -7.7,-3.1 -8.9,-4.8 6.4,-1.5 13,-14.3 13,-22.6 0.1,-6.6 0.3,-11.1 -2.9,-17.2 z"
   id="path12" />
		<path
   class="st0"
   d="m 85.1,818.6 12.5,0.5 c 7.7,0 41.8,-5.5 51.4,-6.8 5.3,-0.7 12.3,-1.5 16,-3.6 l 11.8,-7.9 c 7.2,-5.1 15.8,-10.8 22.1,-17.1 3.5,-3.5 6.6,-6.2 9.4,-10.3 -5.1,1.2 -33.1,20.9 -38.2,24.4 -4.3,3.1 -7.3,6.3 -14.1,7.3 l -54.8,8.3 c -3.5,0.8 -14,2.4 -16.1,5.2 z"
   id="path14" />
		<path
   class="st0"
   d="m 721.7,984.7 c 0,4.5 4.7,13.5 4.7,22.7 0,3.4 -0.6,4.9 -0.6,8.9 h 6 c 1.5,-17.1 0.2,-14.5 -3.5,-29.2 -1,-3.6 -0.6,-3.1 -3.6,-4.7 -0.9,0.3 -3,1.2 -3,2.3 z"
   id="path16" />
		<path
   class="st0"
   d="m 598.9,1016.2 h 6.6 c 0,-5.7 7.3,-24 5.9,-29.7 -5.2,-1.3 -4.9,-0.9 -6.4,5.5 z"
   id="path18" />
		<path
   class="st0"
   d="m 461.4,547.6 c 0,-4.4 7.8,-4.9 7.8,0 0,6.3 -7.8,4.8 -7.8,0 z m -3.5,0 c 0,9.8 14.9,10.4 14.9,0 0,-5.3 -7.1,-9.8 -12.4,-5.2 -1.1,1 -2.5,3.6 -2.5,5.2 z"
   id="path20" />
		<path
   class="st0"
   d="m 439.4,546.5 c 0,-5.7 7.8,-5.7 7.8,0 0,4.6 -7.8,4.6 -7.8,0 z m -3.5,-0.6 c 0,1.7 1,4.2 1.9,5.1 2.6,3 7.4,3.3 10.5,0.6 7.4,-6.4 -3.1,-18 -10.3,-10.8 -0.9,1.1 -2.1,3.6 -2.1,5.1 z"
   id="path22" />
	</g>
</g>
<path
   style="fill:#000000;stroke-width:1.04551"
   d="m 140.55204,252.62473 1.35139,-0.104 14.97547,-2.41238 14.97551,-2.41241 0.43718,-0.43718 0.43714,-0.43717 1.41452,-4.10346 1.41451,-4.10345 7.6048,-1.27487 7.60483,-1.27487 11.638,-6.40934 11.63797,-6.40924 5.75027,-10.55344 5.7503,-10.55345 3.60468,-4.07365 3.60475,-4.07365 10.24821,-5.14284 10.24827,-5.1428 v -0.39621 -0.39625 l -9.67093,-2.36065 -9.67093,-2.36069 -6.79581,-3.31422 -6.79575,-3.31422 -5.1061,1.14486 -5.10611,1.14485 -2.73523,3.25329 -2.73519,3.25329 -5.49405,3.22668 -5.49408,3.22668 -7.2158,-2.67465 -7.2158,-2.67464 -0.70628,-7.03298 -0.70632,-7.03299 -40.21323,-20.71498 -40.213232,-20.71503 -0.326001,0.3884 -0.326002,0.3884 -1.218565,13.68404 -1.218566,13.68401 3.787569,10.88536 3.787537,10.8854 0.96529,1.80659 0.96526,1.8066 8.15304,10.21673 8.15312,10.21673 9.59607,3.55789 9.59606,3.55787 v 2.37714 2.37708 l 1.77722,0.34211 1.77718,0.34211 -3.06242,2.00657 -3.06242,2.00654 -21.71607,-1.48802 -21.7161,-1.48801 1.4e-4,0.31865 1.75e-4,0.31899 3.108148,7.30408 3.108149,7.30404 7.085538,7.82663 7.08554,7.82666 12.76294,4.15383 12.7629,4.15388 1.35142,-0.10435 z m 1.25425,-5.22979 -3.23365,0.1061 -10.91838,-3.46489 -10.91835,-3.46497 -5.18983,-5.54493 -5.18987,-5.545 -2.25574,-3.27475 -2.25572,-3.27479 -0.61607,-2.11996 -0.61608,-2.11999 18.33585,1.41011 18.33588,1.41003 4.40056,-2.53693 4.4006,-2.53696 12.02332,-1.85803 12.02329,-1.85807 0.82635,-0.73986 0.82635,-0.73989 -10.75864,-1.29746 -10.75868,-1.29746 -2.87515,-0.56838 -2.87512,-0.56838 v -1.71916 -1.71916 l -10.8855,-4.16182 -10.88551,-4.16183 -7.90506,-9.90995 -7.90495,-9.90991 -3.83953,-10.77664 -3.839538,-10.77664 0.71027,-10.10461 0.710308,-10.10461 0.43283,-0.43287 0.43284,-0.43283 35.24653,18.18783 35.24649,18.18783 0.7955,1.53564 0.7955,1.53563 0.86612,6.16871 0.86613,6.16868 9.42928,3.39279 9.42929,3.3928 6.97026,-4.08367 6.97027,-4.08366 2.10119,-2.67125 2.10118,-2.67118 3.67261,-1.01408 3.67261,-1.01407 6.1199,3.08931 6.1199,3.08935 3.85606,0.7234 3.85609,0.7234 v 0.80233 0.80225 l -3.3979,1.39498 -3.39791,1.39494 -4.93428,4.59543 -4.93421,4.59543 -6.30748,11.22184 -6.30745,11.22183 -10.71389,5.84107 -10.71392,5.84102 -12.54608,2.25778 -12.54608,2.25775 -0.29484,0.28993 -0.29484,0.28994 3.17006,1.31311 3.17002,1.31303 v 1.91683 1.91675 l -3.39787,0.59048 -3.39794,0.59045 -8.88678,1.44151 -8.88678,1.44155 z m 75.48613,-62.62395 h 1.33233 l 0.5729,-0.92706 0.57297,-0.92702 -1.41801,-1.17686 -1.41806,-1.17686 -1.17514,1.41599 -1.17515,1.41595 0.68793,0.68793 0.68793,0.68793 z m -30.43221,-4.25441 1.04551,-0.0406 12.42766,-17.09739 12.42765,-17.09739 17.75482,-6.94295 17.75482,-6.94295 0.34561,0.34561 0.34561,0.34561 -11.03415,18.65578 -11.03411,18.65576 1.41634,0.89648 1.41627,0.89646 1.01305,-0.32075 1.01306,-0.32075 13.98791,-23.7807 13.98791,-23.78073 -0.41638,-0.41642 -0.41645,-0.41641 -23.99409,9.43261 -23.99412,9.43258 -2.18491,2.29479 -2.18487,2.29475 -11.78087,16.0739 -11.78087,16.07393 1.4197,0.89957 1.41966,0.89953 1.04552,-0.0403 z"
   id="path499" /></svg>
