<svg width="347" height="467" viewBox="0 0 347 467" fill="none" xmlns="http://www.w3.org/2000/svg">
<rect width="346.667" height="467" fill="white"/>
<path d="M105.875 182.323C101.526 182.323 97.9577 178.788 98.4135 174.463C99.6839 162.408 103.863 150.799 110.64 140.656C118.881 128.322 130.595 118.709 144.299 113.032C158.004 107.356 173.084 105.871 187.632 108.764C202.181 111.658 215.545 118.801 226.033 129.29C236.522 139.779 243.665 153.143 246.559 167.692C249.453 182.24 247.968 197.32 242.291 211.025C236.615 224.729 227.002 236.442 214.668 244.684C204.525 251.461 192.916 255.64 180.861 256.91C176.536 257.366 173 253.798 173 249.448C173 245.099 176.542 241.627 180.852 241.051C189.786 239.856 198.366 236.634 205.918 231.588C215.662 225.077 223.256 215.824 227.74 204.997C232.225 194.171 233.398 182.258 231.112 170.764C228.826 159.271 223.183 148.714 214.897 140.427C206.61 132.141 196.053 126.498 184.56 124.212C173.066 121.926 161.153 123.099 150.326 127.583C139.5 132.068 130.246 139.662 123.736 149.406C118.69 156.958 115.468 165.538 114.273 174.471C113.697 178.782 110.225 182.323 105.875 182.323Z" fill="#34C759"/>
<path opacity="0.2" d="M237.838 164.951C242.04 163.825 246.402 166.316 247.081 170.612C248.974 182.585 247.942 194.88 244.02 206.432C239.252 220.478 230.426 232.795 218.658 241.825C206.89 250.855 192.708 256.193 177.906 257.163C163.104 258.133 148.347 254.692 135.501 247.276C122.654 239.859 112.296 228.799 105.735 215.495C99.1745 202.192 96.7061 187.241 98.6423 172.534C100.578 157.828 106.832 144.025 116.613 132.873C124.656 123.701 134.788 116.66 146.103 112.313C150.163 110.753 154.502 113.285 155.627 117.486C156.753 121.687 154.231 125.957 150.216 127.63C141.896 131.096 134.443 136.429 128.454 143.258C120.728 152.068 115.787 162.972 114.258 174.59C112.728 186.208 114.678 198.019 119.861 208.529C125.044 219.039 133.227 227.776 143.376 233.636C153.524 239.495 165.182 242.213 176.876 241.447C188.569 240.68 199.773 236.464 209.07 229.33C218.367 222.196 225.339 212.466 229.106 201.369C232.026 192.769 232.918 183.647 231.759 174.708C231.2 170.395 233.637 166.076 237.838 164.951Z" fill="#34C759"/>
<path d="M137.25 196.166V193.966L143.73 183.727H145.565V186.859H144.446L140.084 193.772V193.892H149.129V196.166H137.25ZM144.536 199V195.495L144.565 194.511V183.727H147.175V199H144.536ZM156.8 199.291C155.572 199.291 154.518 198.98 153.638 198.359C152.763 197.732 152.09 196.83 151.617 195.652C151.15 194.468 150.916 193.044 150.916 191.379C150.921 189.713 151.157 188.296 151.625 187.128C152.097 185.955 152.771 185.06 153.646 184.443C154.526 183.827 155.577 183.518 156.8 183.518C158.023 183.518 159.075 183.827 159.955 184.443C160.835 185.06 161.508 185.955 161.976 187.128C162.448 188.301 162.684 189.718 162.684 191.379C162.684 193.049 162.448 194.476 161.976 195.659C161.508 196.837 160.835 197.737 159.955 198.359C159.08 198.98 158.028 199.291 156.8 199.291ZM156.8 196.957C157.755 196.957 158.508 196.487 159.06 195.547C159.617 194.603 159.895 193.213 159.895 191.379C159.895 190.165 159.768 189.146 159.515 188.321C159.261 187.496 158.903 186.874 158.441 186.457C157.978 186.034 157.432 185.823 156.8 185.823C155.851 185.823 155.1 186.295 154.548 187.24C153.996 188.179 153.718 189.559 153.713 191.379C153.708 192.597 153.83 193.621 154.078 194.451C154.332 195.281 154.69 195.908 155.152 196.33C155.614 196.748 156.164 196.957 156.8 196.957ZM169.806 199V183.727H179.739V186.047H172.573V190.193H179.225V192.512H172.573V196.681H179.799V199H169.806ZM181.534 186.047V183.727H193.719V186.047H188.998V199H186.254V186.047H181.534ZM195.711 199V183.727H198.478V190.193H205.555V183.727H208.329V199H205.555V192.512H198.478V199H195.711Z" fill="#34C759"/>
<path d="M160.604 160.672C160.564 160.3 160.396 160.01 160.101 159.803C159.808 159.595 159.428 159.491 158.959 159.491C158.629 159.491 158.347 159.541 158.111 159.641C157.875 159.74 157.695 159.875 157.57 160.045C157.445 160.216 157.381 160.411 157.378 160.629C157.378 160.811 157.419 160.969 157.501 161.102C157.587 161.236 157.702 161.349 157.847 161.443C157.991 161.534 158.152 161.611 158.328 161.673C158.504 161.736 158.682 161.788 158.861 161.831L159.679 162.036C160.009 162.112 160.325 162.216 160.629 162.347C160.936 162.477 161.21 162.642 161.452 162.841C161.696 163.04 161.889 163.28 162.031 163.561C162.173 163.842 162.244 164.172 162.244 164.55C162.244 165.061 162.114 165.511 161.852 165.901C161.591 166.287 161.213 166.589 160.719 166.808C160.227 167.024 159.632 167.132 158.933 167.132C158.254 167.132 157.665 167.027 157.165 166.817C156.668 166.607 156.278 166.3 155.997 165.896C155.719 165.493 155.568 165.001 155.545 164.422H157.101C157.124 164.726 157.217 164.979 157.382 165.18C157.547 165.382 157.761 165.533 158.026 165.632C158.293 165.732 158.591 165.781 158.92 165.781C159.264 165.781 159.565 165.73 159.824 165.628C160.085 165.523 160.29 165.378 160.438 165.193C160.585 165.006 160.661 164.787 160.663 164.537C160.661 164.31 160.594 164.122 160.463 163.974C160.332 163.824 160.149 163.699 159.913 163.599C159.68 163.497 159.408 163.406 159.095 163.327L158.102 163.071C157.384 162.886 156.815 162.607 156.398 162.232C155.983 161.854 155.776 161.352 155.776 160.727C155.776 160.213 155.915 159.763 156.193 159.376C156.474 158.99 156.857 158.69 157.339 158.477C157.822 158.261 158.369 158.153 158.98 158.153C159.599 158.153 160.142 158.261 160.608 158.477C161.077 158.69 161.445 158.987 161.712 159.368C161.979 159.746 162.116 160.18 162.125 160.672H160.604ZM164.014 167V158.273H167.286C167.957 158.273 168.519 158.398 168.974 158.648C169.431 158.898 169.777 159.241 170.01 159.679C170.245 160.114 170.363 160.608 170.363 161.162C170.363 161.722 170.245 162.219 170.01 162.653C169.774 163.088 169.426 163.43 168.965 163.68C168.505 163.928 167.938 164.051 167.265 164.051H165.096V162.751H167.052C167.444 162.751 167.765 162.683 168.015 162.547C168.265 162.411 168.45 162.223 168.569 161.984C168.691 161.746 168.752 161.472 168.752 161.162C168.752 160.852 168.691 160.58 168.569 160.344C168.45 160.108 168.264 159.925 168.011 159.794C167.761 159.661 167.438 159.594 167.044 159.594H165.595V167H164.014ZM172.096 167V158.273H173.677V165.675H177.521V167H172.096ZM180.834 158.273V167H179.253V158.273H180.834ZM182.523 159.598V158.273H189.486V159.598H186.788V167H185.22V159.598H182.523Z" fill="#34C759"/>
<circle cx="109" cy="413" r="25" fill="#007AFF" fill-opacity="0.15" stroke="#007AFF" stroke-width="2"/>
<circle cx="173" cy="413" r="25" fill="#007AFF" fill-opacity="0.15" stroke="#007AFF" stroke-width="2"/>
<path d="M157.648 407.028C158.053 405.526 159.001 404.228 160.308 403.385C161.526 402.405 163.067 401.915 164.627 402.01" stroke="#007AFF" stroke-width="2" stroke-linecap="round" stroke-linejoin="round"/>
<path d="M188.004 408.087C185.742 405.851 182.276 405.374 179.495 406.916" stroke="#007AFF" stroke-width="2" stroke-linecap="round" stroke-linejoin="round"/>
<path d="M179.783 422.769C179.783 425.706 177.475 428.04 172.848 428.04C168.222 428.04 165.885 425.699 165.885 422.769" fill="white"/>
<path d="M179.783 422.769C179.783 425.706 177.475 428.04 172.848 428.04C168.222 428.04 165.885 425.699 165.885 422.769" stroke="#007AFF" stroke-width="2" stroke-linecap="round" stroke-linejoin="round"/>
<path d="M165.94 422.769C165.94 422.769 172.987 425.289 179.69 422.823Z" fill="white"/>
<path d="M165.94 422.769C165.94 422.769 172.987 425.289 179.69 422.823" stroke="#007AFF" stroke-width="2" stroke-linecap="round" stroke-linejoin="round"/>
<path d="M184.003 412.861C183.142 412.31 182.153 411.992 181.133 411.938C180.029 411.958 178.943 412.223 177.953 412.713" stroke="#007AFF" stroke-width="2" stroke-linecap="round" stroke-linejoin="round"/>
<path d="M167.579 412.309C167.579 413.69 166.46 414.809 165.079 414.809C163.698 414.809 162.579 413.69 162.579 412.309C162.579 410.928 163.698 409.809 165.079 409.809C166.46 409.809 167.579 410.928 167.579 412.309Z" fill="#007AFF" stroke="#007AFF"/>
<circle cx="237" cy="413" r="25" fill="#007AFF" fill-opacity="0.15" stroke="#007AFF" stroke-width="2"/>
<path d="M236.778 420.681C235.672 420.681 234.612 421.12 233.83 421.902C233.048 422.684 232.609 423.744 232.609 424.85C232.609 425.955 233.049 427.016 233.83 427.797C234.612 428.579 235.672 429.018 236.778 429.018C237.884 429.018 238.944 428.579 239.726 427.797C240.507 427.016 240.947 425.955 240.947 424.85C240.947 423.744 240.507 422.684 239.726 421.902C238.944 421.12 237.884 420.681 236.778 420.681H236.778Z" fill="#007AFF" stroke="#007AFF" stroke-width="2.5104" stroke-miterlimit="10"/>
<path d="M242.27 407.937C242.27 406.481 242.848 405.085 243.878 404.055C244.907 403.026 246.303 402.447 247.759 402.447C249.215 402.447 250.611 403.026 251.641 404.055C252.67 405.085 253.249 406.481 253.249 407.937" stroke="#007AFF" stroke-width="2" stroke-miterlimit="10" stroke-linecap="round"/>
<path d="M245.93 407.937C245.93 407.451 246.123 406.986 246.466 406.643C246.809 406.299 247.275 406.107 247.76 406.107C248.246 406.107 248.711 406.299 249.054 406.643C249.397 406.986 249.59 407.451 249.59 407.937" stroke="#007AFF" stroke-width="2" stroke-miterlimit="10" stroke-linecap="round"/>
<path d="M242.27 407.937C242.269 408.897 242.458 409.849 242.825 410.736C243.192 411.624 243.731 412.431 244.41 413.11C245.088 413.79 245.894 414.329 246.782 414.697C247.669 415.065 248.62 415.255 249.581 415.256H249.589" stroke="#007AFF" stroke-width="2" stroke-miterlimit="10" stroke-linecap="round"/>
<path d="M245.93 407.937C245.922 408.417 246.009 408.895 246.186 409.342C246.362 409.789 246.625 410.197 246.959 410.542C247.634 411.24 248.559 411.641 249.529 411.657C250.5 411.673 251.437 411.303 252.135 410.628C252.48 410.293 252.756 409.894 252.947 409.453C253.139 409.013 253.241 408.538 253.249 408.058C253.25 408.018 253.25 407.977 253.249 407.937" stroke="#007AFF" stroke-width="2" stroke-miterlimit="10" stroke-linecap="round"/>
<path d="M220.315 407.937C220.315 406.481 220.894 405.085 221.923 404.055C222.953 403.026 224.349 402.447 225.805 402.447C227.261 402.447 228.657 403.026 229.686 404.055C230.716 405.085 231.294 406.481 231.294 407.937" stroke="#007AFF" stroke-width="2" stroke-miterlimit="10" stroke-linecap="round"/>
<path d="M223.975 407.937C223.975 407.451 224.168 406.986 224.511 406.643C224.854 406.299 225.32 406.107 225.805 406.107C226.29 406.107 226.756 406.299 227.099 406.643C227.442 406.986 227.635 407.451 227.635 407.937" stroke="#007AFF" stroke-width="2" stroke-miterlimit="10" stroke-linecap="round"/>
<path d="M220.315 407.937C220.315 408.897 220.504 409.849 220.871 410.736C221.238 411.624 221.776 412.431 222.455 413.11C223.134 413.79 223.94 414.329 224.827 414.697C225.714 415.065 226.666 415.255 227.626 415.256H227.635" stroke="#007AFF" stroke-width="2" stroke-miterlimit="10" stroke-linecap="round"/>
<path d="M223.975 407.937C223.968 408.417 224.055 408.895 224.232 409.341C224.409 409.788 224.672 410.196 225.006 410.541C225.682 411.238 226.607 411.638 227.577 411.654C228.548 411.669 229.485 411.298 230.182 410.622C230.879 409.947 231.279 409.022 231.294 408.051C231.295 408.013 231.295 407.975 231.294 407.937" stroke="#007AFF" stroke-width="2" stroke-miterlimit="10" stroke-linecap="round"/>
<path d="M122.725 423.13C123.311 421.706 123.607 420.18 123.595 418.64L123.405 418.71C109.315 422.23 94.5151 418.64 94.5151 418.64H94.4051C94.3943 420.134 94.6763 421.615 95.2351 423C97.0051 427.33 101.625 430.36 109.035 430.36C116.375 430.36 120.935 427.4 122.725 423.13Z" fill="white" stroke="#007AFF" stroke-width="2" stroke-linecap="round" stroke-linejoin="round"/>
<path d="M104.694 409.404C104.323 408.568 103.717 407.858 102.951 407.36C102.184 406.862 101.29 406.596 100.375 406.596C99.4609 406.596 98.5662 406.862 97.7996 407.36C97.033 407.858 96.4274 408.568 96.0562 409.404" stroke="#007AFF" stroke-width="2" stroke-miterlimit="10" stroke-linecap="round"/>
<path d="M121.944 409.404C121.573 408.568 120.967 407.858 120.201 407.36C119.434 406.862 118.54 406.596 117.625 406.596C116.711 406.596 115.816 406.862 115.05 407.36C114.283 407.858 113.677 408.568 113.306 409.404" stroke="#007AFF" stroke-width="2" stroke-miterlimit="10" stroke-linecap="round"/>
<path d="M197 269L197 281C197 285.418 200.582 289 205 289L217 289L229 289C233.418 289 237 292.582 237 297L237 309" stroke="#34C759" stroke-opacity="0.15" stroke-width="2" stroke-linecap="round"/>
<path d="M197 269L197 281C197 285.418 200.582 289 205 289L217 289" stroke="#34C759" stroke-width="3" stroke-linecap="round"/>
<path d="M237.707 375.707C237.317 376.098 236.683 376.098 236.293 375.707L229.929 369.343C229.538 368.953 229.538 368.319 229.929 367.929C230.319 367.538 230.953 367.538 231.343 367.929L237 373.586L242.657 367.929C243.047 367.538 243.681 367.538 244.071 367.929C244.462 368.319 244.462 368.953 244.071 369.343L237.707 375.707ZM236 343C236 342.448 236.448 342 237 342C237.552 342 238 342.448 238 343L236 343ZM238 343L238 375L236 375L236 343L238 343Z" fill="#34C759" fill-opacity="0.15"/>
<path d="M174.061 376.061C173.475 376.646 172.525 376.646 171.939 376.061L162.393 366.515C161.808 365.929 161.808 364.979 162.393 364.393C162.979 363.808 163.929 363.808 164.515 364.393L173 372.879L181.485 364.393C182.071 363.808 183.021 363.808 183.607 364.393C184.192 364.979 184.192 365.929 183.607 366.515L174.061 376.061ZM171.5 343C171.5 342.172 172.172 341.5 173 341.5C173.828 341.5 174.5 342.172 174.5 343L171.5 343ZM174.5 343L174.5 375L171.5 375L171.5 343L174.5 343Z" fill="#34C759"/>
<path d="M173 309L173 269" stroke="#34C759" stroke-width="3" stroke-linecap="round"/>
<path d="M110.061 376.061C109.475 376.646 108.525 376.646 107.939 376.061L98.3934 366.515C97.8076 365.929 97.8076 364.979 98.3934 364.393C98.9792 363.808 99.9289 363.808 100.515 364.393L109 372.879L117.485 364.393C118.071 363.808 119.021 363.808 119.607 364.393C120.192 364.979 120.192 365.929 119.607 366.515L110.061 376.061ZM107.5 343C107.5 342.172 108.172 341.5 109 341.5C109.828 341.5 110.5 342.172 110.5 343L107.5 343ZM110.5 343L110.5 375L107.5 375L107.5 343L110.5 343Z" fill="#34C759"/>
<path d="M149 269L149 281C149 285.418 145.418 289 141 289L129 289L117 289C112.582 289 109 292.582 109 297L109 309" stroke="#34C759" stroke-width="3" stroke-linecap="round"/>
<path opacity="0.3" d="M223.372 333V331.572L227.159 327.86C227.522 327.494 227.823 327.169 228.065 326.885C228.306 326.601 228.487 326.326 228.608 326.059C228.729 325.793 228.789 325.509 228.789 325.207C228.789 324.863 228.711 324.568 228.555 324.323C228.399 324.074 228.184 323.882 227.91 323.748C227.637 323.613 227.326 323.545 226.978 323.545C226.62 323.545 226.305 323.62 226.035 323.769C225.766 323.914 225.556 324.122 225.407 324.392C225.261 324.662 225.188 324.983 225.188 325.356H223.308C223.308 324.664 223.466 324.062 223.782 323.55C224.098 323.039 224.533 322.643 225.087 322.363C225.645 322.082 226.284 321.942 227.005 321.942C227.736 321.942 228.379 322.078 228.933 322.352C229.487 322.625 229.917 323 230.222 323.476C230.531 323.952 230.686 324.495 230.686 325.106C230.686 325.514 230.607 325.915 230.451 326.31C230.295 326.704 230.02 327.141 229.626 327.62C229.235 328.099 228.686 328.68 227.98 329.362L226.099 331.274V331.349H230.851V333H223.372ZM236.346 333.149C235.636 333.149 235 333.016 234.439 332.75C233.878 332.48 233.432 332.11 233.102 331.642C232.775 331.173 232.601 330.637 232.58 330.033H234.498C234.533 330.48 234.727 330.846 235.078 331.13C235.43 331.411 235.852 331.551 236.346 331.551C236.733 331.551 237.078 331.462 237.379 331.285C237.681 331.107 237.919 330.86 238.093 330.544C238.267 330.228 238.352 329.868 238.349 329.463C238.352 329.051 238.265 328.685 238.088 328.366C237.91 328.046 237.667 327.796 237.358 327.615C237.049 327.43 236.694 327.338 236.293 327.338C235.966 327.334 235.645 327.395 235.329 327.519C235.013 327.643 234.762 327.806 234.578 328.009L232.793 327.716L233.363 322.091H239.691V323.742H234.998L234.684 326.635H234.748C234.95 326.397 235.236 326.2 235.606 326.043C235.975 325.884 236.38 325.804 236.82 325.804C237.481 325.804 238.07 325.96 238.589 326.272C239.107 326.581 239.515 327.007 239.814 327.551C240.112 328.094 240.261 328.716 240.261 329.415C240.261 330.136 240.094 330.779 239.76 331.343C239.43 331.904 238.97 332.347 238.381 332.67C237.795 332.989 237.117 333.149 236.346 333.149ZM247.743 330.955V330.379C247.743 329.957 247.832 329.568 248.01 329.213C248.191 328.858 248.454 328.572 248.798 328.355C249.143 328.138 249.56 328.03 250.05 328.03C250.554 328.03 250.977 328.138 251.318 328.355C251.659 328.568 251.916 328.852 252.09 329.207C252.268 329.562 252.356 329.953 252.356 330.379V330.955C252.356 331.377 252.268 331.766 252.09 332.121C251.912 332.476 251.651 332.762 251.307 332.979C250.966 333.195 250.547 333.304 250.05 333.304C249.553 333.304 249.132 333.195 248.787 332.979C248.443 332.762 248.182 332.476 248.004 332.121C247.83 331.766 247.743 331.377 247.743 330.955ZM249.134 330.379V330.955C249.134 331.235 249.201 331.493 249.336 331.727C249.471 331.961 249.709 332.078 250.05 332.078C250.394 332.078 250.63 331.963 250.758 331.732C250.89 331.498 250.955 331.239 250.955 330.955V330.379C250.955 330.095 250.893 329.836 250.769 329.602C250.645 329.364 250.405 329.245 250.05 329.245C249.716 329.245 249.48 329.364 249.341 329.602C249.203 329.836 249.134 330.095 249.134 330.379ZM242.198 324.712V324.136C242.198 323.71 242.289 323.32 242.47 322.964C242.651 322.609 242.914 322.325 243.258 322.112C243.603 321.896 244.02 321.787 244.51 321.787C245.011 321.787 245.432 321.896 245.772 322.112C246.117 322.325 246.376 322.609 246.55 322.964C246.724 323.32 246.811 323.71 246.811 324.136V324.712C246.811 325.138 246.722 325.528 246.545 325.884C246.371 326.235 246.112 326.517 245.767 326.73C245.423 326.944 245.004 327.05 244.51 327.05C244.009 327.05 243.587 326.944 243.242 326.73C242.901 326.517 242.642 326.233 242.465 325.878C242.287 325.523 242.198 325.134 242.198 324.712ZM243.599 324.136V324.712C243.599 324.996 243.665 325.255 243.796 325.489C243.931 325.72 244.169 325.836 244.51 325.836C244.851 325.836 245.085 325.72 245.213 325.489C245.345 325.255 245.41 324.996 245.41 324.712V324.136C245.41 323.852 245.348 323.593 245.224 323.359C245.1 323.121 244.862 323.002 244.51 323.002C244.173 323.002 243.937 323.121 243.802 323.359C243.667 323.597 243.599 323.856 243.599 324.136ZM242.806 333L250.306 322.091H251.637L244.137 333H242.806Z" fill="#34C759"/>
<path d="M94.372 333V331.572L98.1593 327.86C98.5215 327.494 98.8234 327.169 99.0649 326.885C99.3063 326.601 99.4875 326.326 99.6082 326.059C99.7289 325.793 99.7893 325.509 99.7893 325.207C99.7893 324.863 99.7112 324.568 99.5549 324.323C99.3987 324.074 99.1838 323.882 98.9104 323.748C98.637 323.613 98.3262 323.545 97.9782 323.545C97.6196 323.545 97.3053 323.62 97.0354 323.769C96.7655 323.914 96.556 324.122 96.4068 324.392C96.2612 324.662 96.1884 324.983 96.1884 325.356H94.3081C94.3081 324.664 94.4661 324.062 94.7822 323.55C95.0982 323.039 95.5333 322.643 96.0872 322.363C96.6448 322.082 97.284 321.942 98.0049 321.942C98.7364 321.942 99.3791 322.078 99.9331 322.352C100.487 322.625 100.917 323 101.222 323.476C101.531 323.952 101.686 324.495 101.686 325.106C101.686 325.514 101.607 325.915 101.451 326.31C101.295 326.704 101.02 327.141 100.626 327.62C100.235 328.099 99.6863 328.68 98.9796 329.362L97.0993 331.274V331.349H101.851V333H94.372ZM107.346 333.149C106.636 333.149 106 333.016 105.439 332.75C104.878 332.48 104.432 332.11 104.102 331.642C103.775 331.173 103.601 330.637 103.58 330.033H105.498C105.533 330.48 105.727 330.846 106.078 331.13C106.43 331.411 106.852 331.551 107.346 331.551C107.733 331.551 108.078 331.462 108.379 331.285C108.681 331.107 108.919 330.86 109.093 330.544C109.267 330.228 109.352 329.868 109.349 329.463C109.352 329.051 109.265 328.685 109.088 328.366C108.91 328.046 108.667 327.796 108.358 327.615C108.049 327.43 107.694 327.338 107.293 327.338C106.966 327.334 106.645 327.395 106.329 327.519C106.013 327.643 105.762 327.806 105.578 328.009L103.793 327.716L104.363 322.091H110.691V323.742H105.998L105.684 326.635H105.748C105.95 326.397 106.236 326.2 106.606 326.043C106.975 325.884 107.38 325.804 107.82 325.804C108.481 325.804 109.07 325.96 109.589 326.272C110.107 326.581 110.515 327.007 110.814 327.551C111.112 328.094 111.261 328.716 111.261 329.415C111.261 330.136 111.094 330.779 110.76 331.343C110.43 331.904 109.97 332.347 109.381 332.67C108.795 332.989 108.117 333.149 107.346 333.149ZM118.743 330.955V330.379C118.743 329.957 118.832 329.568 119.01 329.213C119.191 328.858 119.454 328.572 119.798 328.355C120.143 328.138 120.56 328.03 121.05 328.03C121.554 328.03 121.977 328.138 122.318 328.355C122.659 328.568 122.916 328.852 123.09 329.207C123.268 329.562 123.356 329.953 123.356 330.379V330.955C123.356 331.377 123.268 331.766 123.09 332.121C122.912 332.476 122.651 332.762 122.307 332.979C121.966 333.195 121.547 333.304 121.05 333.304C120.553 333.304 120.132 333.195 119.787 332.979C119.443 332.762 119.182 332.476 119.004 332.121C118.83 331.766 118.743 331.377 118.743 330.955ZM120.134 330.379V330.955C120.134 331.235 120.201 331.493 120.336 331.727C120.471 331.961 120.709 332.078 121.05 332.078C121.394 332.078 121.63 331.963 121.758 331.732C121.89 331.498 121.955 331.239 121.955 330.955V330.379C121.955 330.095 121.893 329.836 121.769 329.602C121.645 329.364 121.405 329.245 121.05 329.245C120.716 329.245 120.48 329.364 120.341 329.602C120.203 329.836 120.134 330.095 120.134 330.379ZM113.198 324.712V324.136C113.198 323.71 113.289 323.32 113.47 322.964C113.651 322.609 113.914 322.325 114.258 322.112C114.603 321.896 115.02 321.787 115.51 321.787C116.011 321.787 116.432 321.896 116.772 322.112C117.117 322.325 117.376 322.609 117.55 322.964C117.724 323.32 117.811 323.71 117.811 324.136V324.712C117.811 325.138 117.722 325.528 117.545 325.884C117.371 326.235 117.112 326.517 116.767 326.73C116.423 326.944 116.004 327.05 115.51 327.05C115.009 327.05 114.587 326.944 114.242 326.73C113.901 326.517 113.642 326.233 113.465 325.878C113.287 325.523 113.198 325.134 113.198 324.712ZM114.599 324.136V324.712C114.599 324.996 114.665 325.255 114.796 325.489C114.931 325.72 115.169 325.836 115.51 325.836C115.851 325.836 116.085 325.72 116.213 325.489C116.345 325.255 116.41 324.996 116.41 324.712V324.136C116.41 323.852 116.348 323.593 116.224 323.359C116.1 323.121 115.862 323.002 115.51 323.002C115.173 323.002 114.937 323.121 114.802 323.359C114.667 323.597 114.599 323.856 114.599 324.136ZM113.806 333L121.306 322.091H122.637L115.137 333H113.806Z" fill="#34C759"/>
<path d="M163.82 333.149C163.11 333.149 162.475 333.016 161.913 332.75C161.352 332.48 160.907 332.11 160.576 331.642C160.25 331.173 160.076 330.637 160.054 330.033H161.972C162.008 330.48 162.201 330.846 162.553 331.13C162.904 331.411 163.327 331.551 163.82 331.551C164.207 331.551 164.552 331.462 164.854 331.285C165.156 331.107 165.394 330.86 165.568 330.544C165.742 330.228 165.827 329.868 165.823 329.463C165.827 329.051 165.74 328.685 165.562 328.366C165.385 328.046 165.141 327.796 164.832 327.615C164.524 327.43 164.168 327.338 163.767 327.338C163.44 327.334 163.119 327.395 162.803 327.519C162.487 327.643 162.237 327.806 162.052 328.009L160.268 327.716L160.837 322.091H167.166V323.742H162.473L162.158 326.635H162.222C162.425 326.397 162.711 326.2 163.08 326.043C163.449 325.884 163.854 325.804 164.294 325.804C164.955 325.804 165.544 325.96 166.063 326.272C166.581 326.581 166.99 327.007 167.288 327.551C167.586 328.094 167.736 328.716 167.736 329.415C167.736 330.136 167.569 330.779 167.235 331.343C166.905 331.904 166.445 332.347 165.855 332.67C165.269 332.989 164.591 333.149 163.82 333.149ZM173.417 333.208C172.54 333.208 171.787 332.986 171.159 332.542C170.534 332.094 170.053 331.45 169.715 330.608C169.381 329.763 169.215 328.746 169.215 327.556C169.218 326.366 169.387 325.354 169.721 324.52C170.058 323.682 170.539 323.043 171.164 322.602C171.793 322.162 172.544 321.942 173.417 321.942C174.291 321.942 175.042 322.162 175.67 322.602C176.299 323.043 176.78 323.682 177.114 324.52C177.451 325.358 177.62 326.37 177.62 327.556C177.62 328.749 177.451 329.768 177.114 330.614C176.78 331.455 176.299 332.098 175.67 332.542C175.045 332.986 174.294 333.208 173.417 333.208ZM173.417 331.54C174.099 331.54 174.637 331.205 175.031 330.534C175.429 329.859 175.628 328.866 175.628 327.556C175.628 326.69 175.537 325.962 175.356 325.372C175.175 324.783 174.919 324.339 174.589 324.04C174.259 323.739 173.868 323.588 173.417 323.588C172.739 323.588 172.203 323.925 171.809 324.6C171.414 325.271 171.216 326.256 171.212 327.556C171.208 328.426 171.295 329.158 171.473 329.751C171.654 330.344 171.91 330.791 172.24 331.093C172.57 331.391 172.963 331.54 173.417 331.54ZM185.088 330.955V330.379C185.088 329.957 185.176 329.568 185.354 329.213C185.535 328.858 185.798 328.572 186.142 328.355C186.487 328.138 186.904 328.03 187.394 328.03C187.898 328.03 188.321 328.138 188.662 328.355C189.003 328.568 189.26 328.852 189.434 329.207C189.612 329.562 189.701 329.953 189.701 330.379V330.955C189.701 331.377 189.612 331.766 189.434 332.121C189.257 332.476 188.996 332.762 188.651 332.979C188.31 333.195 187.891 333.304 187.394 333.304C186.897 333.304 186.476 333.195 186.132 332.979C185.787 332.762 185.526 332.476 185.349 332.121C185.175 331.766 185.088 331.377 185.088 330.955ZM186.478 330.379V330.955C186.478 331.235 186.545 331.493 186.68 331.727C186.815 331.961 187.053 332.078 187.394 332.078C187.739 332.078 187.975 331.963 188.103 331.732C188.234 331.498 188.3 331.239 188.3 330.955V330.379C188.3 330.095 188.237 329.836 188.113 329.602C187.989 329.364 187.749 329.245 187.394 329.245C187.06 329.245 186.824 329.364 186.686 329.602C186.547 329.836 186.478 330.095 186.478 330.379ZM179.543 324.712V324.136C179.543 323.71 179.633 323.32 179.814 322.964C179.995 322.609 180.258 322.325 180.603 322.112C180.947 321.896 181.364 321.787 181.854 321.787C182.355 321.787 182.776 321.896 183.117 322.112C183.461 322.325 183.72 322.609 183.894 322.964C184.068 323.32 184.155 323.71 184.155 324.136V324.712C184.155 325.138 184.067 325.528 183.889 325.884C183.715 326.235 183.456 326.517 183.111 326.73C182.767 326.944 182.348 327.05 181.854 327.05C181.354 327.05 180.931 326.944 180.587 326.73C180.246 326.517 179.986 326.233 179.809 325.878C179.631 325.523 179.543 325.134 179.543 324.712ZM180.943 324.136V324.712C180.943 324.996 181.009 325.255 181.141 325.489C181.275 325.72 181.513 325.836 181.854 325.836C182.195 325.836 182.43 325.72 182.557 325.489C182.689 325.255 182.755 324.996 182.755 324.712V324.136C182.755 323.852 182.692 323.593 182.568 323.359C182.444 323.121 182.206 323.002 181.854 323.002C181.517 323.002 181.281 323.121 181.146 323.359C181.011 323.597 180.943 323.856 180.943 324.136ZM180.15 333L187.65 322.091H188.981L181.481 333H180.15Z" fill="#34C759"/>
<circle cx="191" cy="395" r="13" fill="white"/>
<circle cx="191" cy="395" r="13" fill="#34C759" fill-opacity="0.15"/>
<circle cx="191" cy="395" r="13" stroke="white" stroke-width="2"/>
<path d="M186.333 395.667L189 398.333L195.667 391.667" stroke="#34C759" stroke-width="2" stroke-linecap="round" stroke-linejoin="round"/>
<circle cx="127" cy="395" r="13" fill="white"/>
<circle cx="127" cy="395" r="13" fill="#34C759" fill-opacity="0.15"/>
<circle cx="127" cy="395" r="13" stroke="white" stroke-width="2"/>
<path d="M122.333 395.667L125 398.333L131.667 391.667" stroke="#34C759" stroke-width="2" stroke-linecap="round" stroke-linejoin="round"/>
</svg>
