<?xml version="1.0" encoding="UTF-8"?>
<svg width="84px" height="108px" viewBox="0 0 84 108" version="1.1" xmlns="http://www.w3.org/2000/svg" xmlns:xlink="http://www.w3.org/1999/xlink">
    <!-- Generator: Sketch 57.1 (83088) - https://sketch.com -->
    <title>illustration/magic-link</title>
    <desc>Created with Sketch.</desc>
    <g id="illustration/magic-link" stroke="none" stroke-width="1" fill="none" fill-rule="evenodd">
        <g id="magic-link" transform="translate(4.000000, 0.000000)">
            <g id="Group-11" transform="translate(9.500000, 18.800000)">
                <ellipse id="Oval-Copy-5" fill="#380A60" cx="29.8902961" cy="42.9315497" rx="23.6987348" ry="9.60759518"></ellipse>
                <path d="M29.8902961,30.5 C37.2151606,30.5 43.835657,31.5298165 48.6321039,33.1199478 C51.6507389,34.1206941 54.0372512,35.3850682 55.6906879,36.708424 C58.6846868,39.1047212 59.7805922,41.8729203 59.7805922,44.4870651 C59.7805922,47.10121 58.6846868,49.8694091 55.6906879,52.2657063 C54.0372512,53.5890621 51.6507389,54.8534362 48.6321039,55.8541825 C43.835657,57.4443138 37.2151606,58.4741303 29.8902961,58.4741303 C22.5654316,58.4741303 15.9449352,57.4443138 11.1484884,55.8541825 C8.1298533,54.8534362 5.74334104,53.5890621 4.08990433,52.2657063 C1.09590542,49.8694091 0,47.10121 0,44.4870651 C0,41.8729203 1.09590542,39.1047212 4.08990433,36.708424 C5.74334104,35.3850682 8.1298533,34.1206941 11.1484884,33.1199478 C15.9449352,31.5298165 22.5654316,30.5 29.8902961,30.5 Z M29.8902961,34.3788916 C16.7513118,34.3788916 6.10006043,38.4072495 6.10006043,43.3764807 C6.10006043,48.345712 16.7513118,52.3740699 29.8902961,52.3740699 C43.0292805,52.3740699 53.6805318,48.345712 53.6805318,43.3764807 C53.6805318,38.4072495 43.0292805,34.3788916 29.8902961,34.3788916 Z" id="Combined-Shape-Copy-11" stroke="#000000" stroke-width="3" fill="#9013FE"></path>
                <g id="Group-13-Copy-2" transform="translate(11.847368, 0.500000)" stroke="#231F20">
                    <path d="M30.9321726,26.0692421 L30.9321726,41.8252421 C30.9321726,48.1309263 25.8252253,53.2460842 19.5195411,53.2460842 C16.3666989,53.2460842 13.5176463,51.9652421 11.4485937,49.9044 C9.37954105,47.8353474 8.10690947,44.9780842 8.10690947,41.8252421 L8.10690947,26.0692421 C8.10690947,23.7538737 8.79659368,21.6027158 9.97890947,19.8046105 C12.01512,16.7010316 15.5292253,14.6484 19.5195411,14.6484 C19.5852253,14.6484 19.6509095,14.6484 19.7165937,14.6566105 L24.3226989,22.8917684 C24.9138568,23.9427158 25.1109095,25.1086105 24.9795411,26.2252421 C24.65112,23.4993474 22.3357516,21.3892421 19.5195411,21.3892421 C16.4816463,21.3892421 14.0184884,23.8524 14.0184884,26.8902947 L14.0184884,41.8252421 C14.0184884,44.8631368 16.4816463,47.3345053 19.5195411,47.3345053 C22.5574358,47.3345053 25.0205937,44.8631368 25.0205937,41.8252421 L25.0205937,35.5852421 C25.0452253,35.5688211 25.0698568,35.5606105 25.0944884,35.5441895 C28.7645937,33.4997684 30.8500674,29.7147158 30.9239621,25.7982947 C30.9321726,25.8886105 30.9321726,25.9789263 30.9321726,26.0692421 Z" id="Stroke-1" stroke-width="3" fill="#FFE62D"></path>
                    <path d="M24.9795411,26.2255705 C24.7824884,27.9169389 23.8054358,29.4925389 22.2043832,30.3874863 C19.5523832,31.8744126 16.2024884,30.9137811 14.7163832,28.26096 L14.0184884,27.0137811 L14.0184884,26.8906232 C14.0184884,23.8519074 16.4816463,21.3887495 19.5195411,21.3887495 C22.3357516,21.3887495 24.65112,23.4996758 24.9795411,26.2255705 Z" id="Stroke-3"></path>
                    <path d="M25.0204295,35.5850779 L25.0204295,41.8258989 C25.0204295,44.8629726 22.5572716,47.3351621 19.5193768,47.3351621 C16.4823032,47.3351621 14.0191453,44.8629726 14.0191453,41.8258989 L14.0191453,35.5850779 C14.7745137,36.0038147 15.5783242,36.3404463 16.4166189,36.5703411 C19.2073768,37.3503411 22.2863242,37.0958147 25.0204295,35.5850779 Z" id="Stroke-5"></path>
                    <path d="M30.9241263,25.7982126 C30.8502316,29.7154547 28.7647579,33.4996863 25.0938316,35.5441074 C25.0700211,35.5605284 25.0453895,35.5687389 25.0207579,35.58516 C22.2858316,37.0958968 19.2068842,37.3504232 16.4161263,36.5704232 C15.5786526,36.3405284 14.7740211,36.0038968 14.0186526,35.58516 L14.0186526,27.0133705 L14.7165474,28.7158676 C16.2018316,31.3678676 19.5517263,31.8740021 22.2045474,30.3878968 C23.8056,29.4929495 24.7826526,27.9165284 24.9797053,26.2259811 C25.1110737,25.1085284 24.9140211,23.9426337 24.3228632,22.8916863 L19.7167579,14.6565284 L17.0319158,9.86158105 C15.5458105,7.20958105 12.1950947,6.25716 9.54391579,7.74326526 C6.89109474,9.22937053 5.94770526,12.5792653 7.4256,15.2312653 L9.97907368,19.8045284 C8.79675789,21.6026337 8.10707368,23.7537916 8.10707368,26.06916 L8.10707368,28.5569495 L1.86625263,17.3996653 C-1.21269474,11.8904021 0.750442105,4.93526526 6.25149474,1.85631789 C9.01023158,0.320949474 12.1220211,0.0500021053 14.9374105,0.846423158 C17.7462316,1.63463368 20.2504421,3.50745474 21.7940211,6.25716 L29.4790737,20.0097916 C30.5053895,21.8407389 30.9733895,23.8358968 30.9241263,25.7982126 Z" id="Stroke-7" stroke-width="3" fill="#FFE62D" stroke-linejoin="round"></path>
                    <path d="M19.5192126,14.6482358 C15.5297179,14.6482358 12.0147916,16.7008674 9.97940211,19.8044463 L7.42592842,15.2311832 C5.94803368,12.5791832 6.89142316,9.22928842 9.54424421,7.74318316 C12.1954232,6.25707789 15.5453179,7.20949895 17.0322442,9.86149895 L19.7162653,14.6564463 C19.6505811,14.6482358 19.5848968,14.6482358 19.5192126,14.6482358 Z" id="Stroke-9"></path>
                    <path d="M24.9795411,26.2255705 C24.7824884,27.9169389 23.8054358,29.4925389 22.2043832,30.3874863 C19.5523832,31.8744126 16.2024884,30.9137811 14.7163832,28.26096 L14.0184884,27.0137811 L14.0184884,26.8906232 C14.0184884,23.8519074 16.4816463,21.3887495 19.5195411,21.3887495 C22.3357516,21.3887495 24.65112,23.4996758 24.9795411,26.2255705 Z" id="Stroke-11"></path>
                </g>
                <path d="M5.54665173,51.1097039 L54.0875734,51.1097039 L53.7466513,52.8915821 C53.0040424,56.7729344 52.6319833,60.9392553 52.6319833,65.3910108 C52.6319833,67.6871468 52.7309664,69.8145254 52.9283403,71.7725278 C53.3359507,75.8161409 51.1262297,79.6711695 47.4310201,81.3630258 C41.4170216,84.1165425 35.5674809,85.5 29.8902961,85.5 C24.3368349,85.5 18.6410274,84.1761509 12.8111731,81.5408259 C8.96061982,79.8002236 6.72263706,75.7254775 7.31958353,71.542164 C7.59868835,69.5862382 7.73852729,67.5359372 7.73852729,65.3910108 C7.73852729,61.2632253 7.17928273,57.13463 6.05943158,53.0020241 L5.54665173,51.1097039 Z" id="Combined-Shape-Copy-12" stroke="#000000" stroke-width="3" fill="#9013FE"></path>
                <path d="M5.82694085,50.9173768 L54.0381524,51.1169982 L53.7536092,52.8524078 C53.307848,55.5710744 53.023366,57.6391614 52.9005131,59.0443148 C52.7613537,60.6359767 49.974946,61.857422 45.2821072,63.1547762 C40.6462364,64.4363813 35.4224411,65.2432323 30.5168127,65.2777138 C25.5915923,65.3123331 20.2164832,64.5794559 15.377457,63.3677254 C10.4497912,62.1337988 7.55245648,60.9796276 7.34748999,59.412842 C7.26607539,58.7905002 6.86486678,56.5256282 6.15645197,52.6978325 L5.82694085,50.9173768 Z" id="Rectangle-Copy-5" stroke="#000000" stroke-width="3" fill="#B67CEA"></path>
                <path d="M59.7502862,44.5383933 C59.5554509,46.9265907 58.4005044,49.4000903 55.6906879,51.5689373 C54.0372512,52.8922931 51.6507389,54.1566673 48.6321039,55.1574135 C43.835657,56.7475448 37.2151606,57.7773613 29.8902961,57.7773613 C22.5654316,57.7773613 15.9449352,56.7475448 11.1484884,55.1574135 C8.1298533,54.1566673 5.74334104,52.8922931 4.08990433,51.5689373 C1.38008787,49.4000903 0.225141381,46.9265907 0.0303060168,44.5383933 M6.2056837,44.5383933 C7.3423269,48.5433936 17.5123703,51.6773009 29.8902961,51.6773009 C42.2682219,51.6773009 52.4382653,48.5433936 53.5749085,44.5383933" id="Shape-Copy-9" stroke="#000000" stroke-width="3" fill="#9013FE" stroke-linecap="round"></path>
            </g>
            <path d="M7.35,44.5 C11.4092929,44.5 14.7,41.2092929 14.7,37.15 C14.7,33.0907071 11.4092929,29.8 7.35,29.8 C3.29070709,29.8 2.30926389e-14,33.0907071 2.30926389e-14,37.15 C2.30926389e-14,41.2092929 3.29070709,44.5 7.35,44.5 Z M7.35,41.2333333 C5.09483727,41.2333333 3.26666667,39.4051627 3.26666667,37.15 C3.26666667,34.8948373 5.09483727,33.0666667 7.35,33.0666667 C9.60516273,33.0666667 11.4333333,34.8948373 11.4333333,37.15 C11.4333333,39.4051627 9.60516273,41.2333333 7.35,41.2333333 Z" id="Oval" fill="#B8E986" fill-rule="nonzero"></path>
            <g id="Group-2-Copy" transform="translate(58.500000, 12.526490) rotate(-69.000000) translate(-58.500000, -12.526490) translate(49.000000, 3.026490)" fill="#A2D7FF" fill-rule="nonzero">
                <path d="M9.59717212,0.951256735 C10.4762253,0.951256735 11.1888388,1.66387018 11.1888388,2.5429234 L11.1888388,2.5429234 L11.1884614,7.89525674 L16.7541065,7.89548021 C17.5843234,7.89548021 18.2660802,8.5311138 18.3392685,9.34227276 L18.3457731,9.48714687 C18.3457731,10.3662001 17.6331597,11.0788135 16.7541065,11.0788135 L16.7541065,11.0788135 L11.1884614,11.0782567 L11.1888388,16.8639018 C11.1888388,17.6941187 10.5532052,18.3758755 9.74204623,18.4490639 L9.59717212,18.4555685 C8.7181189,18.4555685 8.00550546,17.742955 8.00550546,16.8639018 L8.00550546,16.8639018 L8.00546139,11.0782567 L2.43312806,11.0788135 C1.60291112,11.0788135 0.921154363,10.4431799 0.847966011,9.63202098 L0.841461389,9.48714687 C0.841461389,8.60809365 1.55407483,7.89548021 2.43312806,7.89548021 L2.43312806,7.89548021 L8.00546139,7.89525674 L8.00550546,2.5429234 C8.00550546,1.71270647 8.64113905,1.03094971 9.45229801,0.957761357 Z" id="Combined-Shape"></path>
            </g>
            <g id="Group-2-Copy-2" transform="translate(67.664213, 38.209583) rotate(-104.000000) translate(-67.664213, -38.209583) translate(58.664213, 28.709583)" fill="#FF93B9" fill-rule="nonzero">
                <path d="M8.9684448,0.833919519 C9.86130515,0.833919519 10.5851115,1.55772584 10.5851115,2.45058619 L10.5851115,2.45058619 L10.5842098,7.88691952 L16.2377917,7.88721456 C17.0810487,7.88721456 17.7735137,8.53283193 17.8478516,9.35673161 L17.8544584,9.50388123 C17.8544584,10.3967416 17.1306521,11.1205479 16.2377917,11.1205479 L16.2377917,11.1205479 L10.5842098,11.1199195 L10.5851115,16.9965014 C10.5851115,17.8397584 9.9394941,18.5322234 9.11559442,18.6065613 L8.9684448,18.6131681 C8.07558446,18.6131681 7.35177814,17.8893618 7.35177814,16.9965014 L7.35177814,16.9965014 L7.35120982,11.1199195 L1.69187648,11.1205479 C0.84861949,11.1205479 0.156154513,10.4749305 0.0818166046,9.65103085 L0.0752098163,9.50388123 C0.0752098163,8.61102088 0.799016137,7.88721456 1.69187648,7.88721456 L1.69187648,7.88721456 L7.35120982,7.88691952 L7.35177814,2.45058619 C7.35177814,1.60732919 7.9973955,0.914864216 8.82129518,0.840526308 Z" id="Combined-Shape"></path>
            </g>
        </g>
    </g>
</svg>